<svg width="1435" height="809" viewBox="0 0 1435 809" fill="none" xmlns="http://www.w3.org/2000/svg">
<g clip-path="url(#clip0_651_483)">
<g clip-path="url(#clip1_651_483)">
<path d="M249.635 362.52C328.962 362.52 393.27 298.147 393.27 218.74C393.27 139.333 328.962 74.9609 249.635 74.9609C170.308 74.9609 106 139.333 106 218.74C106 298.147 170.308 362.52 249.635 362.52Z" fill="#862FE7"/>
<path d="M1143.53 768.866C1210.32 768.866 1264.47 714.665 1264.47 647.805C1264.47 580.944 1210.32 526.743 1143.53 526.743C1076.74 526.743 1022.59 580.944 1022.59 647.805C1022.59 714.665 1076.74 768.866 1143.53 768.866Z" fill="#862FE7"/>
<path d="M1144.87 266.478C1165.31 261.411 1177.78 240.716 1172.72 220.254C1167.66 199.793 1146.98 187.314 1126.54 192.381C1106.1 197.449 1093.63 218.144 1098.7 238.605C1103.76 259.067 1124.43 271.546 1144.87 266.478Z" fill="#862FE7"/>
<path d="M1204.05 177.466C1212.98 177.466 1220.22 170.222 1220.22 161.285C1220.22 152.349 1212.98 145.104 1204.05 145.104C1195.12 145.104 1187.89 152.349 1187.89 161.285C1187.89 170.222 1195.12 177.466 1204.05 177.466Z" fill="#FFB800"/>
<path d="M375.118 476.049C384.045 476.049 391.282 468.805 391.282 459.868C391.282 450.932 384.045 443.688 375.118 443.688C366.19 443.688 358.953 450.932 358.953 459.868C358.953 468.805 366.19 476.049 375.118 476.049Z" fill="#FFB800"/>
<path d="M338.895 542.376C338.899 540.62 338.383 538.903 337.411 537.441C336.44 535.98 335.057 534.839 333.438 534.165C331.818 533.49 330.036 533.311 328.315 533.651C326.595 533.991 325.013 534.835 323.772 536.075C322.53 537.315 321.684 538.896 321.34 540.617C320.997 542.339 321.171 544.124 321.841 545.746C322.512 547.368 323.648 548.755 325.106 549.731C326.564 550.707 328.278 551.227 330.032 551.227C332.379 551.227 334.63 550.296 336.292 548.636C337.953 546.977 338.89 544.725 338.895 542.376Z" fill="#862FE7"/>
<path d="M1273.31 462.731C1273.31 460.98 1272.79 459.269 1271.82 457.813C1270.85 456.357 1269.47 455.223 1267.85 454.553C1266.24 453.883 1264.46 453.707 1262.75 454.049C1261.03 454.391 1259.45 455.234 1258.22 456.472C1256.98 457.709 1256.14 459.287 1255.8 461.004C1255.46 462.721 1255.63 464.501 1256.3 466.118C1256.97 467.735 1258.1 469.118 1259.56 470.091C1261.01 471.063 1262.72 471.582 1264.47 471.582C1266.82 471.582 1269.06 470.65 1270.72 468.99C1272.38 467.33 1273.31 465.078 1273.31 462.731Z" fill="#FFB800"/>
<mask id="mask0_651_483" style="mask-type:luminance" maskUnits="userSpaceOnUse" x="243" y="120" width="1137" height="658">
<path d="M1180.46 120.275C1146.58 120.814 1113.41 130.144 1084.2 147.352C1055 164.561 1030.75 189.06 1013.83 218.456C1011.84 221.938 1009.01 224.871 1005.61 226.991C1002.21 229.112 998.332 230.353 994.332 230.605C990.331 230.856 986.331 230.11 982.69 228.433C979.048 226.755 975.88 224.199 973.469 220.994C954.349 195.088 929.508 173.953 900.885 159.238C872.262 144.523 840.63 136.626 808.456 136.162C776.282 135.698 744.436 142.68 715.402 156.564C686.368 170.448 660.93 190.858 641.072 216.203C620.866 186.853 593.787 162.903 562.201 146.447C530.614 129.99 495.483 121.527 459.875 121.798C339.666 122.59 241.888 222.07 243.104 342.4C243.455 376.136 251.6 409.332 266.903 439.391C282.206 469.45 304.251 495.555 331.313 515.664C358.375 535.773 389.719 549.339 422.892 555.301C456.064 561.263 490.166 559.459 522.526 550.03C516.811 581.249 521.964 613.486 537.124 641.362C552.285 669.238 576.536 691.067 605.832 703.207C635.128 715.347 667.697 717.064 698.105 708.072C728.513 699.079 754.921 679.921 772.923 653.794C788.669 691.06 815.222 722.741 849.148 744.74C883.075 766.738 922.814 778.042 963.227 777.19C1068.59 775.038 1155.4 690.886 1160.71 585.518C1162.05 559.802 1158.47 534.066 1150.18 509.69C1178.57 514.603 1207.68 513.199 1235.46 505.575C1263.24 497.951 1289 484.296 1310.9 465.58C1332.81 446.863 1350.34 423.546 1362.22 397.284C1374.11 371.023 1380.08 342.462 1379.69 313.632C1378.13 205.666 1288.42 118.55 1180.46 120.275Z" fill="white"/>
</mask>
<g mask="url(#mask0_651_483)">
<path d="M216.414 209.909C293.89 186.622 359.521 176.979 429.169 222.72C460.93 243.468 487.519 274.287 525.831 283.159C576.536 294.914 632.919 261.964 675.348 238.819C698.713 226.09 722.888 202.032 748.24 193.485C767.326 187.029 783.024 192.855 801.439 199.941C851.657 219.248 893.822 243.407 948.238 250.29C1062.59 264.786 1242.32 253.64 1300.59 136.598C1354.79 191.739 1385.03 288.377 1323.61 351.983C1292.93 383.756 1186.39 393.176 1211.74 454.245C1220.42 475.176 1241.51 489.489 1251.17 510.157C1262.28 533.93 1257.96 557.42 1254.76 582.615C1242.99 675.233 1276.05 743.874 1326.9 821.266C1262.69 802.405 1221.6 768.683 1165.82 735.997C1123.23 710.985 1087.61 714.822 1043.6 735.997C991.499 761.07 948.766 820.758 887.799 820.474C838.494 820.23 789.493 794.203 745.34 775.261C701.187 756.319 643.79 725.765 593.39 735.388C547.046 744.219 519.706 790.528 474.194 805.308C379.053 836.208 277.462 776.581 182.28 771.12C183.578 714.416 203.596 680.816 239.717 638.831C290.969 579.224 370.21 510.278 282.694 444.906C246.187 417.721 152.891 387.816 194.144 327.499C204.61 312.191 225.459 306.405 236.736 292.295C263.001 259.081 240.61 239.164 216.414 209.909Z" stroke="#FFF3FC" stroke-width="0.25" stroke-linecap="round" stroke-linejoin="round"/>
<path d="M183.07 744.93C271.052 752.361 366.316 790.062 452.087 753.335C494.983 734.962 520.132 703.615 569.254 701.342C621.033 698.926 672.306 719.126 720.556 735.266C763.796 749.721 810.079 768.156 856.443 767.303C919.499 766.166 957.122 713.706 1011.56 689.12C1054.96 669.488 1088.63 674.035 1129.43 696.489C1183.59 726.333 1224.11 750.107 1287.81 759.527" stroke="#FFF3FC" stroke-width="0.25" stroke-linecap="round" stroke-linejoin="round"/>
<path d="M186.052 723.288C271.418 733.094 356.276 747.935 438.701 715.634C482.875 698.317 513.743 676.147 562.906 677.365C614.969 678.644 665.491 694.561 715.384 707.818C757.854 719.207 802.251 731.673 846.647 728.12C902.483 723.572 935.136 682.745 984.096 660.413C1025.69 641.45 1059.89 646.912 1099.7 666.199C1157.18 694.073 1198.7 708.488 1264.27 708.224" stroke="#FFF3FC" stroke-width="0.25" stroke-linecap="round" stroke-linejoin="round"/>
<path d="M192.907 703.372C284.175 716.873 360.698 712 447.645 681.892C494.476 665.651 528.772 655.276 578.726 660.677C628.233 666.016 676.484 678.624 725.2 688.45C764.648 696.429 805.333 703.412 845.592 698.114C896.479 691.434 927.105 655.682 973.246 637.512C1013.4 621.717 1045 630.305 1083.15 646.12C1142.82 670.868 1188.13 675.193 1252.89 665.488" stroke="#FFF3FC" stroke-width="0.25" stroke-linecap="round" stroke-linejoin="round"/>
<path d="M204.934 682.501C258.782 692.368 310.642 697.606 364.389 684.308C399.273 675.68 432.393 660.839 466.994 651.114C561.446 624.539 650.543 660.981 745.016 672.107C781.137 676.35 817.604 677.751 853.462 670.665C898.082 661.854 928.626 631.32 970.812 617.575C1009.06 605.089 1039.34 617.738 1075.16 630.65C1137.16 652.982 1187.04 646.891 1250.23 629.188" stroke="#FFF3FC" stroke-width="0.25" stroke-linecap="round" stroke-linejoin="round"/>
<path d="M223.634 657.895C279.976 670.584 331.33 677.162 386.638 658.22C423.145 645.694 456.427 626.61 494.881 619.362C586.555 602.064 677.031 653.875 769.921 653.997C802.402 654.029 834.724 649.477 865.935 640.476C905.505 629.107 940.024 600.339 980.121 593.619C1015.57 587.69 1043.36 605.962 1075.75 616.54C1138.1 636.842 1192.77 620.6 1252.79 597.375" stroke="#FFF3FC" stroke-width="0.25" stroke-linecap="round" stroke-linejoin="round"/>
<path d="M250.183 626.833C306.038 642.344 356.378 652.373 410.956 628.173C443.893 613.575 472.409 592.238 509.079 587.264C565.665 579.549 616.024 607.83 669.304 621.351C710.374 631.766 752.986 636.679 795.051 629.756C828.637 624.214 859.749 610.571 890.902 597.537C921.75 584.625 958.886 560.364 993.467 562.739C1022.08 564.769 1045.89 584.665 1071.53 595.344C1136.27 622.285 1196.71 596.258 1256.76 567.997" stroke="#FFF3FC" stroke-width="0.25" stroke-linecap="round" stroke-linejoin="round"/>
<path d="M286.264 586.574C337.759 604.5 387.125 620.519 436.734 590.248C463.992 573.621 484.375 550.903 518.307 549.015C575.4 545.868 629.45 587 684.15 599.608C728.101 609.759 772.862 610.185 815.454 594.329C870.214 574.027 944.932 492.676 1006.75 518.216C1032.65 528.916 1050.7 554.902 1075.14 568.586C1137.16 603.323 1202.23 568.891 1258.89 539.128" stroke="#FFF3FC" stroke-width="0.25" stroke-linecap="round" stroke-linejoin="round"/>
<path d="M320.986 532.306C365.139 546.071 407.467 559.369 452.249 542.153C476.283 532.915 493.786 519.82 520.903 521.343C573.067 524.267 624.339 555.309 676.2 564.465C721.164 572.423 766.007 573.926 810.059 560.871C867.618 543.838 945.946 465.715 1006.67 482.647C1032.69 489.895 1052.28 514.319 1075.63 526.683C1135.78 558.415 1192.77 537.443 1251.57 511.558" stroke="#FFF3FC" stroke-width="0.25" stroke-linecap="round" stroke-linejoin="round"/>
<path d="M322.021 490.687C362.381 500.006 402.052 508.837 443.569 503.478C468.028 500.331 488.675 495.357 513.601 499.052C607.891 513.486 693.257 556.892 791.522 538.174C824.5 531.9 855.145 517.973 885.142 503.356C913.273 489.631 947.67 462.752 979.999 462.021C1011.19 461.31 1039.71 485.571 1067.21 496.9C1125.8 521.039 1177.58 508.37 1235.71 487.195" stroke="#FFF3FC" stroke-width="0.25" stroke-linecap="round" stroke-linejoin="round"/>
<path d="M299.508 458.488C364.227 466.061 431.075 465.918 494.942 479.338C582.884 497.813 673.867 527.129 764.851 521.973C796.815 520.186 826.386 511.679 855.713 499.051C887.576 485.348 918.586 458.082 952.538 452.215C984.218 446.753 1014.74 461.493 1044.52 470.121C1106.03 487.926 1156.35 482.952 1218.25 464.903" stroke="#FFF3FC" stroke-width="0.25" stroke-linecap="round" stroke-linejoin="round"/>
<path d="M263.893 432.461C423.632 430.715 577.225 491.763 735.808 508.756C764.993 511.882 791.927 509.385 819.591 499.254C855.673 486.038 882.87 456.925 918.546 444.845C953.775 432.907 989.877 440.784 1025.53 446.631C1089.28 457.107 1142.86 457.534 1206.93 443.789" stroke="#FFF3FC" stroke-width="0.25" stroke-linecap="round" stroke-linejoin="round"/>
<path d="M225.662 409.438C276.711 402.251 323.481 400.688 372.928 416.95C406.25 427.913 437.606 444.155 471.963 451.991C514.555 461.736 559.174 458.082 602.232 465.309C639.287 471.4 673.827 484.434 709.888 494.199C734.834 500.96 757.712 504.472 783.084 497.427C825.149 485.754 851.211 450.509 890.273 433.395C927.835 416.93 969.372 417.498 1009.33 420.584C1077.51 425.842 1141.04 431.303 1209.49 422.614" stroke="#FFF3FC" stroke-width="0.25" stroke-linecap="round" stroke-linejoin="round"/>
<path d="M194.915 386.192C252.373 370.823 301.171 370.458 356.418 393.805C388.544 407.367 418.156 427.182 452.067 436.44C500.013 449.595 548.263 435.973 596.898 443.119C631.012 448.134 660.725 461.391 692.222 474.303C774.079 507.659 806.003 446.022 875.893 412.991C983.65 362.053 1118.95 402.21 1233.16 400.667" stroke="#FFF3FC" stroke-width="0.25" stroke-linecap="round" stroke-linejoin="round"/>
<path d="M182.32 359.556C237.872 337.345 283.262 334.605 337.658 361.809C375.767 380.853 410.185 410.534 451.377 423.02C497.761 437.232 537.088 416.93 583.675 416.808C622.899 416.645 653.505 430.207 688.795 445.109C714.39 455.93 734.834 464.579 762.559 455.26C807.564 440.216 840.4 395.633 884.249 375.919C1009.23 319.886 1156.75 360.327 1285.97 376.65" stroke="#FFF3FC" stroke-width="0.25" stroke-linecap="round" stroke-linejoin="round"/>
<path d="M189.155 334.584C250.913 311.277 298.534 310.222 357.25 342.705C393.25 362.621 425.721 391.268 465.939 402.657C514.717 416.503 559.235 390.923 608.033 389.217C639.307 388.101 666.85 395.186 696.137 404.87C774.789 430.918 816.062 378.477 889.604 355.719C1026.77 313.084 1178.52 349.283 1318.1 357.587" stroke="#FFF3FC" stroke-width="0.25" stroke-linecap="round" stroke-linejoin="round"/>
<path d="M205.38 316.312C268.903 293.817 318.147 291.645 377.248 327.011C411.95 347.76 442.798 377.767 482.307 389.4C531.47 403.916 575.42 376.691 623.366 369.301C651.416 364.976 676.889 366.499 704.493 371.331C776.736 383.918 826.183 349.242 896.601 335.376C1042.37 306.669 1193.59 334.665 1340.77 328.047" stroke="#FFF3FC" stroke-width="0.25" stroke-linecap="round" stroke-linejoin="round"/>
<path d="M225.135 301.431C290.219 279.768 341.227 276.581 400.409 314.952C433.691 336.553 462.755 367.88 501.493 379.919C570.938 401.459 642.005 341.121 713.802 341.548C778.947 341.954 836.608 324.555 901.347 316.942C1051.78 299.218 1204.6 319.418 1354.03 291.442" stroke="#FFF3FC" stroke-width="0.25" stroke-linecap="round" stroke-linejoin="round"/>
<path d="M242.212 286.651C304.558 267.08 358.02 260.258 414.931 297.451C448.416 319.357 476.466 354.521 514.981 368.123C588.258 394.029 653.525 325.286 723.253 312.231C783.49 300.943 852.448 302.649 913.333 299.319C1060.34 291.198 1217.09 303.38 1357.16 250.838" stroke="#FFF3FC" stroke-width="0.25" stroke-linecap="round" stroke-linejoin="round"/>
<path d="M250.527 268.664C314.638 249.296 371.224 240.83 429.412 280.033C462.248 302.182 489.385 338.259 527.677 351.659C605.112 378.742 665.471 303.198 732.522 279.972C749.478 274.105 764.243 275.323 782.091 276.906C828.089 280.967 872.648 282.997 918.972 282.997C1059.34 282.53 1227.11 287.666 1349.65 209.503" stroke="#FFF3FC" stroke-width="0.25" stroke-linecap="round" stroke-linejoin="round"/>
<path d="M243.916 244.179C314.901 223.065 375.24 214.396 438.62 258.939C470.361 281.271 497.051 314.688 535.587 325.509C617.403 348.471 674.192 269.171 741.02 241.438C758.077 234.332 772.173 237.378 789.899 241.438C833.849 251.467 874.818 263.243 920.331 266.186C1051.72 274.551 1234.41 272.988 1331.01 170.381" stroke="#FFF3FC" stroke-width="0.25" stroke-linecap="round" stroke-linejoin="round"/>
<path d="M1285.3 165.225C1330.57 218.477 1340.28 300.843 1281.71 349.974C1243.58 382.01 1146.67 396.465 1171.38 464.62C1180.32 489.327 1201.07 508.228 1207.88 534.215C1213.75 556.832 1209.18 580.402 1206.79 603.242C1198.13 685.466 1238.04 743.997 1285.58 808.801" stroke="#FFF3FC" stroke-width="0.25" stroke-linecap="round" stroke-linejoin="round"/>
<path d="M1261.35 189.505C1297.85 241.235 1291.87 308.212 1239.14 347.577C1196.22 379.614 1107.65 397.074 1135.07 469.268C1143.19 490.423 1158.84 508.025 1165.5 529.89C1173.39 556.039 1169.71 580.645 1167.4 607.302C1160.65 684.775 1203.79 734.292 1251.21 792.883" stroke="#FFF3FC" stroke-width="0.25" stroke-linecap="round" stroke-linejoin="round"/>
<path d="M1230.17 209.706C1265.38 258.431 1233.74 317.551 1190.6 346.664C1143.96 378.193 1075.14 397.886 1101.97 469.349C1111.99 496.026 1132.25 516.044 1136.96 545.442C1140.31 566.19 1135.86 587.284 1134 607.932C1127.55 679.314 1177.36 724.263 1222.24 775.261" stroke="#FFF3FC" stroke-width="0.25" stroke-linecap="round" stroke-linejoin="round"/>
<path d="M1193.3 225.928C1213.58 267.06 1189.71 313.491 1155.13 337.589C1122.32 360.429 1082.89 365.586 1066.1 409.174C1057.98 430.431 1063.32 446.165 1072.32 466.203C1083.5 491.012 1102.26 508.837 1108 536.529C1113.37 562.415 1105.97 587.082 1104.91 612.967C1102.18 673.873 1158.9 716.65 1197.14 757.538" stroke="#FFF3FC" stroke-width="0.25" stroke-linecap="round" stroke-linejoin="round"/>
<path d="M1152.21 238.332C1176.55 347.618 977.525 355.15 1045.65 461.005C1060.68 484.332 1080.7 502.483 1086.4 531.068C1091.31 555.654 1083.11 578.92 1081.31 603.1C1076.87 662.869 1136.49 702.194 1174.28 741.154" stroke="#FFF3FC" stroke-width="0.25" stroke-linecap="round" stroke-linejoin="round"/>
<path d="M1108.38 247.082C1105.22 289.229 1089.28 312.719 1057.15 337.69C1013.69 371.453 977.18 405.154 1020.44 455.057C1035.81 472.78 1055.61 487.865 1063.84 510.847C1074.55 540.752 1061.41 568.038 1060.05 597.78C1057.48 654.159 1116.13 691.028 1152.09 727.998" stroke="#FFF3FC" stroke-width="0.25" stroke-linecap="round" stroke-linejoin="round"/>
<path d="M1063.3 252.34C1049.48 288.174 1042.28 311.216 1013.75 337.609C972.86 375.452 948.684 408.666 997.218 449.555C1014.68 464.314 1036.5 476.983 1045.89 499.133C1058.79 529.362 1043.34 558.273 1040.86 588.462C1036.14 645.896 1092.24 680.593 1128.91 719.451" stroke="#FFF3FC" stroke-width="0.25" stroke-linecap="round" stroke-linejoin="round"/>
<path d="M1018.53 254.229C1000.28 281.515 996.569 312.739 973.671 337.467C932.743 381.644 920.026 411.57 975.476 445.88C999.551 460.762 1027.92 471.217 1034.62 502.584C1040.48 530.114 1023.93 559.288 1021.21 585.944C1015.59 641.247 1069.54 678.867 1103.41 717.258" stroke="#FFF3FC" stroke-width="0.25" stroke-linecap="round" stroke-linejoin="round"/>
<path d="M975.517 252.909C952.741 278.774 947.021 316.577 929.985 346.197C900.779 396.953 895.262 423.345 954.018 445.211C973.611 452.519 1001.6 459.422 1013.5 479.135C1030.99 508.106 1010.67 545.95 1003.65 575.042C988.071 639.786 1034.54 673.406 1073.74 722.963" stroke="#FFF3FC" stroke-width="0.25" stroke-linecap="round" stroke-linejoin="round"/>
<path d="M935.725 248.564C906.418 277.82 903.862 319.134 890.192 356.166C882.81 376.143 861.311 399.998 874.494 422.289C885.73 441.252 914.165 444.804 933.027 448.824C952.396 452.885 984.036 455.605 997.158 473.999C1017.22 502.158 991.479 546.376 983.062 574.433C961.685 645.734 997.158 677.608 1038.41 738.271" stroke="#FFF3FC" stroke-width="0.25" stroke-linecap="round" stroke-linejoin="round"/>
<path d="M900.698 241.296C867.436 279.566 865.245 313.349 854.638 360.409C848.898 385.786 827.765 419.163 848.209 442.693C861.473 457.94 894.715 456.499 911.812 457.798C934.426 459.503 967.323 457.108 981.338 478.628C999.287 506.259 969.169 554.152 959.211 581.052C951.869 600.867 941.728 623.179 941.931 644.963C942.316 685.872 977.322 731.267 995.839 764.522" stroke="#FFF3FC" stroke-width="0.25" stroke-linecap="round" stroke-linejoin="round"/>
<path d="M871.817 231.287C827.197 282.042 826.507 325.062 816.772 388.527C813.994 406.677 799.35 439.282 811.235 456.985C827.156 480.82 866.118 474.567 889.867 473.613C910.149 472.801 951.767 464.721 964.707 487.296C976.004 506.99 944.425 564.444 938.564 578.656C925.888 609.109 906.316 642.181 904.369 675.943C901.874 719.694 928.038 765.049 944.567 803.42" stroke="#FFF3FC" stroke-width="0.25" stroke-linecap="round" stroke-linejoin="round"/>
<path d="M834.762 214.477C799.452 277.414 797.2 333.65 790.021 403.53C788.195 421.213 774.464 456.783 786.593 473.613C802.332 495.458 840.197 489.124 862.507 488.088C881.957 487.276 922.764 479.541 935.521 500.879C947.001 519.983 918.444 574.819 912.765 588.908C900.272 619.91 880.051 653.205 877.191 687.252C873.358 732.932 899.907 777.718 918.16 817.307" stroke="#FFF3FC" stroke-width="0.25" stroke-linecap="round" stroke-linejoin="round"/>
<path d="M806.936 202.235C779.352 272.278 773.957 337.955 767.325 411.976C765.764 429.619 752.925 466.426 765.054 483.176C780.306 504.188 816.103 499.153 838.068 499.235C857.721 499.235 896.56 493.611 909.054 514.806C920.756 534.601 895.12 583.833 888.671 599.121C875.995 629.148 853.888 660.819 849.182 693.668C842.652 739.286 868.957 781.86 888.083 820.921" stroke="#FFF3FC" stroke-width="0.25" stroke-linecap="round" stroke-linejoin="round"/>
<path d="M786.35 194.236C764.851 267.608 755.096 339.233 747.673 415.041C745.888 433.171 733.78 469.39 745.746 486.789C760.409 508.147 793.428 504.858 815.515 507.253C836.101 509.487 871.999 506.34 884.27 528.489C895.993 549.665 873.581 591.751 865.509 608.845C852.225 637.024 827.441 665.326 820.241 696.002C809.937 739.997 835.573 779.058 855.003 816.414" stroke="#FFF3FC" stroke-width="0.25" stroke-linecap="round" stroke-linejoin="round"/>
<path d="M771.037 190.297C754.163 264.481 739.276 338.401 729.967 413.925C721.428 483.257 724.247 497.346 793.996 512.451C815.454 517.1 848.635 518.176 860.216 541.3C871.614 564.059 852.935 598.796 842.55 617.595C828.171 643.663 800.446 667.011 790.345 694.987C775.459 736.18 800.182 770.795 819.652 805.877" stroke="#FFF3FC" stroke-width="0.25" stroke-linecap="round" stroke-linejoin="round"/>
<path d="M759.071 190.115C746.07 261.822 726.62 332.229 714.329 403.957C710.151 428.482 698.104 463.32 713.437 485.997C725.89 504.472 753.311 508.756 772.7 515.131C842.53 538.072 857.721 579.367 807.179 641.004C793.55 657.631 771.402 670.787 760.977 689.404C739.377 727.978 762.235 756.848 782.841 791.544" stroke="#FFF3FC" stroke-width="0.25" stroke-linecap="round" stroke-linejoin="round"/>
<path d="M748.22 193.485C737.856 264.542 713.741 329.184 697.617 398.658C682.487 464.132 691.208 486.83 750.451 515.496C810.059 544.366 838.96 589.132 781.928 643.826C766.514 658.606 742.501 667.579 729.561 684.125C702.809 718.274 724.004 742.169 745.3 775.221" stroke="#FFF3FC" stroke-width="0.25" stroke-linecap="round" stroke-linejoin="round"/>
<path d="M736.761 200.124C728.75 269.658 702.87 322.362 681.432 387.085C659.264 453.981 673.888 477.328 726.62 513.831C772.355 545.482 818.922 591.528 759.821 640.902C741.811 655.926 717.23 661.468 699.605 676.248C665.126 705.28 684.819 726.252 707.92 759.284" stroke="#FFF3FC" stroke-width="0.25" stroke-linecap="round" stroke-linejoin="round"/>
<path d="M722.564 209.828C718.873 253.945 713.031 289.636 692.385 328.778C682.69 347.05 669.953 363.718 661.557 382.822C634.501 444.419 655.35 471.461 700.092 510.461C737.714 543.29 791.238 597.578 730.879 639.705C711.166 653.469 686.016 656.393 666.505 669.569C628.802 694.987 646.224 713.117 671.271 745.763" stroke="#FFF3FC" stroke-width="0.25" stroke-linecap="round" stroke-linejoin="round"/>
<path d="M703.681 222.354C701.673 265.801 698.226 298.65 673.502 334.828C662.651 350.684 647.704 363.596 638.273 380.569C607.546 435.892 632.553 466.304 669.993 505.609C702.16 539.372 756.231 597.456 699.017 635.543C678.633 649.104 653.606 651.541 632.31 662.93C590.732 685.262 610.771 706.316 636.184 736.749" stroke="#FFF3FC" stroke-width="0.25" stroke-linecap="round" stroke-linejoin="round"/>
<path d="M678.126 237.378C678.126 279.809 677.579 311.014 649.205 343.822C637.462 357.404 620.912 366.621 610.467 381.543C577.063 429.273 604.707 462.427 635.515 499.62C663.3 533.159 715.059 591.934 663.747 628.051C643.749 642.141 617.971 644.922 597.04 656.941C554.185 681.567 576.109 703.636 603.53 734.292" stroke="#FFF3FC" stroke-width="0.25" stroke-linecap="round" stroke-linejoin="round"/>
<path d="M643.911 254.817C646.284 293.98 649.631 325.875 619.959 354.846C605.944 368.509 587.082 374.722 574.609 390.435C544.409 428.441 571.1 461.351 595.742 492.88C623.65 528.591 667.519 583.102 620.08 620.093C601.441 634.609 576.495 639.725 557.836 654.139C517.658 685.222 546.255 710.985 574.061 740.646" stroke="#FFF3FC" stroke-width="0.25" stroke-linecap="round" stroke-linejoin="round"/>
<path d="M599.008 274.267C603.814 309.775 611.826 344.126 582.275 370.438C567.104 383.938 544.754 386.294 531.693 402.921C507.355 434.105 530.313 459.483 549.561 485.205C571.871 515.09 604.707 555.045 586.271 594.025C573.534 620.925 536.743 632.294 518.246 654.423C483.767 695.697 518.631 726.293 548.405 757.7" stroke="#FFF3FC" stroke-width="0.25" stroke-linecap="round" stroke-linejoin="round"/>
<path d="M563.961 284.235C570.329 317.977 580.186 350.846 551.589 376.346C536.783 389.563 514.798 391.268 501.919 407.611C477.865 438.064 501.067 456.438 521.288 479.135C548.506 509.589 567.003 546.741 548.871 587.447C535.201 618.103 504.251 636.619 486.829 664.595C457.279 711.858 488.594 745.966 518.976 782.692" stroke="#FFF3FC" stroke-width="0.25" stroke-linecap="round" stroke-linejoin="round"/>
<path d="M534.451 284.702C542.158 317.592 553.151 348.755 524.797 373.889C509.89 387.106 487.56 388.446 474.539 404.83C449.329 436.541 476.344 452.174 497.68 473.857C529.948 506.34 535.992 544.325 517.8 587.021C503.805 619.849 474.924 642.872 458.618 674.177C432.657 724.06 459.388 759.203 489.243 799.604" stroke="#FFF3FC" stroke-width="0.25" stroke-linecap="round" stroke-linejoin="round"/>
<path d="M508.977 277.718C518.205 312.231 529.259 340.654 499.039 366.072C484.842 378.091 464.824 380 451.661 394.171C420.569 427.689 453.851 446.591 477.581 469.166C520.173 509.771 510.194 560.912 481.942 609.251C467.744 633.613 447.463 654.301 434.624 679.456C408.461 730.211 430.406 765.536 459.287 809.389" stroke="#FFF3FC" stroke-width="0.25" stroke-linecap="round" stroke-linejoin="round"/>
<path d="M486.059 265.253C496.504 300.112 507.355 326.809 476.729 352.369C461.802 364.835 441.013 366.905 427.181 381.543C392.702 417.945 435.091 440.947 459.977 465.046C507.273 510.868 490.541 565.216 458.455 617.311C443.65 641.369 423.733 662.26 410.631 687.394C385.462 735.693 403.269 769.882 429.088 813.43" stroke="#FFF3FC" stroke-width="0.25" stroke-linecap="round" stroke-linejoin="round"/>
<path d="M464.195 249.356C475.877 284.824 486.323 309.836 455.15 335.782C439.492 348.816 417.71 351.252 403.127 366.458C365.139 406.108 417.669 435.222 443.812 461.472C495.835 513.709 475.168 570.657 436.916 626.833C421.299 649.774 401.363 669.975 387.733 694.276C362.908 738.535 376.558 770.632 398.685 812.759" stroke="#FFF3FC" stroke-width="0.25" stroke-linecap="round" stroke-linejoin="round"/>
<path d="M441.926 231.998C454.906 268.095 464.885 291.605 433.266 318.099C416.898 331.803 394.162 334.727 378.87 350.583C337.394 393.603 400.531 429.761 428.013 458.346C484.801 517.222 462.106 577.052 416.067 636.801C368.993 697.87 332.202 729.277 368.1 808.517" stroke="#FFF3FC" stroke-width="0.25" stroke-linecap="round" stroke-linejoin="round"/>
<path d="M417.75 215.208C432.15 251.752 441.926 274.084 410.043 301.147C393.148 315.541 369.48 319.033 353.741 335.66C309.304 382.051 382.663 424.99 411.564 455.686C472.815 520.653 449.126 584.036 394.649 646.221C348.468 699.007 309.811 727.897 337.374 801.918" stroke="#FFF3FC" stroke-width="0.25" stroke-linecap="round" stroke-linejoin="round"/>
<path d="M390.187 200.997C406.169 237.378 416.31 258.776 384.488 286.732C367.35 301.817 343.174 305.897 327.091 323.053C280.605 372.671 363.07 420.868 393.371 453.169C459.084 523.191 433.61 590.249 371.406 653.693C326.989 698.986 287.257 725.257 306.505 793.777" stroke="#FFF3FC" stroke-width="0.25" stroke-linecap="round" stroke-linejoin="round"/>
<path d="M357.757 191.353C375.584 227.064 386.78 247.773 355.566 276.622C338.611 292.315 314.151 296.924 298.25 314.668C250.994 367.23 340.842 417.843 372.42 450.936C442.798 524.531 412.72 594.492 345.06 658.362C302.996 698.235 264.055 722.415 275.555 785.534" stroke="#FFF3FC" stroke-width="0.25" stroke-linecap="round" stroke-linejoin="round"/>
<path d="M318.958 188.287C338.732 222.395 352.24 242.778 322.264 272.764C306.038 289.006 281.7 294.102 266.57 312.191C220.267 367.291 314.82 416.28 347.697 448.946C423.327 524.307 383.494 595.121 314.455 659.153C274.845 695.9 239.656 719.897 244.585 778.327" stroke="#FFF3FC" stroke-width="0.25" stroke-linecap="round" stroke-linejoin="round"/>
<path d="M272.31 193.79C293.95 225.197 311.393 245.6 283.546 276.805C268.842 293.29 245.193 298.914 231.381 317.145C188.181 374.174 284.215 416.341 317.903 447.078C462.593 578.798 200.107 644.841 213.493 773.11" stroke="#FFF3FC" stroke-width="0.25" stroke-linecap="round" stroke-linejoin="round"/>
</g>
</g>
<g filter="url(#filter0_f_651_483)">
<path d="M1429 390.607C1429 411.757 1424.16 432.675 1414.79 452.031C1405.42 471.387 1391.73 488.756 1374.58 503.034C1357.43 517.312 1337.2 528.185 1315.18 534.963C1293.16 541.741 1269.83 544.274 1246.67 542.402C1223.52 540.529 1201.04 534.292 1180.68 524.088C1160.32 513.883 1142.52 499.934 1128.4 483.128C1114.29 466.323 1104.18 447.028 1098.7 426.472C1093.23 405.917 1092.53 384.55 1096.63 363.732L1261.5 390.607H1429Z" fill="url(#paint0_angular_651_483)"/>
<path d="M1356.85 408.68C1356.85 473.121 1299.43 525.361 1228.6 525.361C1157.77 525.361 1100.36 473.121 1100.36 408.68C1100.36 344.24 1157.77 292 1228.6 292C1299.43 292 1356.85 344.24 1356.85 408.68Z" fill="#8636F8"/>
</g>
</g>
<defs>
<filter id="filter0_f_651_483" x="744" y="-58" width="1035" height="951" filterUnits="userSpaceOnUse" color-interpolation-filters="sRGB">
<feFlood flood-opacity="0" result="BackgroundImageFix"/>
<feBlend mode="normal" in="SourceGraphic" in2="BackgroundImageFix" result="shape"/>
<feGaussianBlur stdDeviation="175" result="effect1_foregroundBlur_651_483"/>
</filter>
<radialGradient id="paint0_angular_651_483" cx="0" cy="0" r="1" gradientUnits="userSpaceOnUse" gradientTransform="translate(1261.5 417.5) rotate(86.1151) scale(149.311 198.878)">
<stop offset="0.164263" stop-color="#2B6ED1"/>
<stop offset="0.685108" stop-color="#062550"/>
<stop offset="1" stop-color="#88A3C7"/>
</radialGradient>
<clipPath id="clip0_651_483">
<rect width="1440" height="809" fill="white"/>
</clipPath>
<clipPath id="clip1_651_483">
<rect width="1390" height="829" fill="white" transform="translate(-33 60)"/>
</clipPath>
</defs>
</svg>
