<svg width="430" height="808" viewBox="0 0 430 808" fill="none" xmlns="http://www.w3.org/2000/svg">
<path d="M429.94 698.123C496.733 698.123 550.88 643.922 550.88 577.061C550.88 510.201 496.733 456 429.94 456C363.147 456 309 510.201 309 577.061C309 643.922 363.147 698.123 429.94 698.123Z" fill="#862FE7"/>
<path d="M439.344 380.273C459.785 375.205 472.252 354.51 467.189 334.049C462.127 313.587 441.452 301.108 421.011 306.176C400.571 311.243 388.104 331.938 393.166 352.4C398.229 372.861 418.903 385.34 439.344 380.273Z" fill="#862FE7"/>
<path d="M48.1181 548.088C57.0455 548.088 64.2826 540.844 64.2826 531.907C64.2826 522.971 57.0455 515.727 48.1181 515.727C39.1907 515.727 31.9536 522.971 31.9536 531.907C31.9536 540.844 39.1907 548.088 48.1181 548.088Z" fill="#FFB800"/>
<path d="M11.8951 614.415C11.8992 612.659 11.3828 610.942 10.4113 609.48C9.43986 608.019 8.05703 606.878 6.43787 606.204C4.81871 605.529 3.036 605.35 1.31539 605.69C-0.405216 606.031 -1.98636 606.874 -3.22792 608.114C-4.46948 609.354 -5.31563 610.935 -5.65926 612.656C-6.00289 614.378 -5.82856 616.163 -5.15833 617.785C-4.4881 619.407 -3.35212 620.794 -1.89415 621.77C-0.436184 622.746 1.27821 623.266 3.03203 623.266C5.37916 623.266 7.63046 622.335 9.29203 620.675C10.9536 619.016 11.8898 616.764 11.8951 614.415Z" fill="#862FE7"/>
<mask id="mask0_653_1270" style="mask-type:luminance" maskUnits="userSpaceOnUse" x="-84" y="192" width="1137" height="658">
<path d="M853.464 192.314C819.577 192.853 786.41 202.183 757.202 219.391C727.995 236.6 703.748 261.1 686.829 290.495C684.838 293.977 682.014 296.91 678.611 299.03C675.208 301.151 671.332 302.392 667.332 302.644C663.331 302.896 659.331 302.149 655.69 300.472C652.048 298.794 648.88 296.238 646.469 293.033C627.349 267.127 602.508 245.992 573.885 231.277C545.262 216.562 513.63 208.665 481.456 208.201C449.282 207.737 417.436 214.719 388.402 228.603C359.368 242.487 333.93 262.897 314.072 288.242C293.866 258.892 266.787 234.942 235.201 218.486C203.614 202.029 168.483 193.566 132.875 193.837C12.6657 194.629 -85.1124 294.109 -83.8955 414.439C-83.5454 448.175 -75.4 481.371 -60.097 511.43C-44.794 541.489 -22.7488 567.594 4.3131 587.703C31.375 607.812 62.7191 621.379 95.8918 627.34C129.064 633.302 163.166 631.498 195.526 622.069C189.811 653.288 194.964 685.525 210.124 713.401C225.285 741.277 249.536 763.106 278.832 775.246C308.128 787.386 340.697 789.103 371.105 780.111C401.513 771.118 427.921 751.96 445.923 725.833C461.669 763.099 488.222 794.78 522.148 816.779C556.074 838.777 595.814 850.081 636.227 849.229C741.59 847.077 828.396 762.925 833.71 657.557C835.047 631.841 831.474 606.106 823.183 581.729C851.565 586.642 880.68 585.238 908.458 577.614C936.236 569.99 961.995 556.335 983.905 537.619C1005.81 518.902 1023.34 495.585 1035.22 469.323C1047.11 443.062 1053.08 414.501 1052.69 385.671C1051.13 277.705 961.423 190.589 853.464 192.314Z" fill="white"/>
</mask>
<g mask="url(#mask0_653_1270)">
<path d="M12.4876 349.691C40.8313 332.268 64.8419 325.053 90.3216 359.276C101.941 374.8 111.669 397.858 125.685 404.496C144.234 413.291 164.861 388.637 180.384 371.321C188.931 361.797 197.776 343.797 207.05 337.402C214.033 332.572 219.776 336.931 226.513 342.233C244.884 356.678 260.31 374.754 280.217 379.903C322.05 390.749 387.805 382.41 409.122 294.84C428.948 336.096 440.011 408.399 417.544 455.989C406.318 479.761 367.341 486.809 376.616 532.5C379.792 548.161 387.508 558.87 391.04 574.333C395.106 592.12 393.526 609.695 392.353 628.546C388.05 697.842 400.144 749.198 418.746 807.102C395.255 792.991 380.222 767.76 359.817 743.305C344.236 724.591 331.207 727.462 315.106 743.305C296.044 762.064 280.41 806.722 258.106 806.51C240.069 806.327 222.142 786.854 205.989 772.682C189.836 758.51 168.838 735.649 150.4 742.849C133.446 749.457 123.444 784.105 106.794 795.163C71.9872 818.282 34.8213 773.669 0 769.583C0.474869 727.158 7.79825 702.019 21.013 670.606C39.7629 626.009 68.7522 574.424 36.7356 525.513C23.3799 505.174 -10.7513 482.799 4.3406 437.67C8.16924 426.217 15.7968 421.888 19.9223 411.331C29.5309 386.481 21.3394 371.579 12.4876 349.691Z" stroke="#FFF3FC" stroke-width="0.25" stroke-linecap="round" stroke-linejoin="round"/>
<path d="M0.289551 749.988C32.4768 755.548 67.3278 783.755 98.7063 756.277C114.399 742.53 123.6 719.077 141.571 717.376C160.513 715.568 179.271 730.682 196.923 742.758C212.742 753.573 229.674 767.366 246.636 766.728C269.704 765.877 283.468 726.626 303.382 708.232C319.261 693.543 331.578 696.946 346.507 713.746C366.317 736.075 381.142 753.862 404.448 760.91" stroke="#FFF3FC" stroke-width="0.25" stroke-linecap="round" stroke-linejoin="round"/>
<path d="M1.38037 733.796C32.6105 741.133 63.655 752.236 93.8092 728.069C109.97 715.112 121.263 698.525 139.248 699.437C158.295 700.393 176.778 712.302 195.031 722.221C210.568 730.743 226.81 740.069 243.052 737.411C263.479 734.009 275.425 703.462 293.336 686.753C308.554 672.566 321.064 676.652 335.629 691.082C356.657 711.938 371.845 722.723 395.834 722.525" stroke="#FFF3FC" stroke-width="0.25" stroke-linecap="round" stroke-linejoin="round"/>
<path d="M3.8877 718.895C37.277 728.996 65.272 725.35 97.0808 702.824C114.213 690.672 126.76 682.91 145.035 686.951C163.147 690.945 180.799 700.378 198.621 707.73C213.053 713.7 227.937 718.925 242.665 714.961C261.282 709.963 272.486 683.214 289.366 669.619C304.057 657.801 315.617 664.227 329.574 676.059C351.403 694.576 367.979 697.811 391.671 690.551" stroke="#FFF3FC" stroke-width="0.25" stroke-linecap="round" stroke-linejoin="round"/>
<path d="M8.28809 703.28C27.9877 710.662 46.9603 714.581 66.6228 704.632C79.385 698.176 91.5015 687.072 104.16 679.796C138.714 659.913 171.309 687.179 205.871 695.503C219.086 698.677 232.426 699.726 245.545 694.424C261.868 687.832 273.043 664.986 288.476 654.703C302.47 645.361 313.548 654.824 326.651 664.485C349.333 681.194 367.579 676.637 390.699 663.391" stroke="#FFF3FC" stroke-width="0.25" stroke-linecap="round" stroke-linejoin="round"/>
<path d="M15.1289 684.87C35.7412 694.363 54.5282 699.285 74.7621 685.113C88.1178 675.741 100.294 661.462 114.362 656.039C147.899 643.098 180.999 681.862 214.982 681.953C226.865 681.977 238.69 678.571 250.108 671.837C264.584 663.33 277.212 641.807 291.881 636.779C304.851 632.343 315.016 646.014 326.866 653.928C349.674 669.118 369.678 656.966 391.634 639.589" stroke="#FFF3FC" stroke-width="0.25" stroke-linecap="round" stroke-linejoin="round"/>
<path d="M24.8413 661.629C45.2755 673.234 63.6916 680.738 83.6583 662.632C95.7082 651.71 106.14 635.746 119.556 632.024C140.257 626.252 158.68 647.411 178.172 657.528C193.197 665.32 208.786 668.996 224.175 663.816C236.462 659.67 247.844 649.462 259.241 639.71C270.527 630.049 284.113 611.898 296.763 613.675C307.233 615.194 315.944 630.08 325.322 638.07C349.006 658.227 371.118 638.753 393.088 617.609" stroke="#FFF3FC" stroke-width="0.25" stroke-linecap="round" stroke-linejoin="round"/>
<path d="M38.0415 631.508C56.8805 644.92 74.9404 656.905 93.0893 634.257C103.062 621.817 110.518 604.819 122.932 603.407C143.819 601.052 163.593 631.827 183.604 641.26C199.683 648.854 216.058 649.173 231.64 637.31C251.673 622.12 279.008 561.255 301.624 580.364C311.099 588.369 317.703 607.812 326.643 618.05C349.333 644.039 373.136 618.277 393.867 596.009" stroke="#FFF3FC" stroke-width="0.25" stroke-linecap="round" stroke-linejoin="round"/>
<path d="M50.7441 590.905C66.8971 601.204 82.3823 611.153 98.7653 598.272C107.558 591.361 113.961 581.564 123.881 582.703C142.965 584.89 161.723 608.115 180.695 614.966C197.145 620.92 213.55 622.044 229.666 612.277C250.724 599.533 279.379 541.083 301.594 553.751C311.114 559.174 318.281 577.447 326.821 586.698C348.829 610.439 369.678 594.748 391.188 575.381" stroke="#FFF3FC" stroke-width="0.25" stroke-linecap="round" stroke-linejoin="round"/>
<path d="M51.1226 559.766C65.888 566.738 80.4012 573.346 95.5896 569.336C104.538 566.981 112.091 563.26 121.21 566.024C155.705 576.824 186.935 609.3 222.884 595.295C234.949 590.601 246.16 580.181 257.134 569.245C267.426 558.976 280.01 538.865 291.837 538.318C303.249 537.786 313.681 555.938 323.742 564.414C345.178 582.475 364.121 572.996 385.386 557.153" stroke="#FFF3FC" stroke-width="0.25" stroke-linecap="round" stroke-linejoin="round"/>
<path d="M42.8867 535.675C66.5634 541.341 91.0192 541.235 114.384 551.275C146.557 565.098 179.842 587.032 213.127 583.174C224.821 581.837 235.639 575.473 246.368 566.025C258.025 555.771 269.37 535.372 281.791 530.982C293.38 526.896 304.547 537.923 315.439 544.379C337.944 557.701 356.352 553.979 378.998 540.475" stroke="#FFF3FC" stroke-width="0.25" stroke-linecap="round" stroke-linejoin="round"/>
<path d="M29.8574 516.202C88.296 514.895 144.486 560.571 202.502 573.285C213.179 575.624 223.033 573.756 233.153 566.176C246.353 556.288 256.303 534.506 269.355 525.468C282.243 516.536 295.45 522.43 308.494 526.804C331.815 534.642 351.418 534.961 374.857 524.678" stroke="#FFF3FC" stroke-width="0.25" stroke-linecap="round" stroke-linejoin="round"/>
<path d="M15.8711 498.976C34.5468 493.599 51.657 492.43 69.7465 504.597C81.9373 512.799 93.4084 524.951 105.978 530.814C121.559 538.105 137.883 535.371 153.635 540.779C167.191 545.336 179.827 555.088 193.02 562.394C202.146 567.452 210.516 570.08 219.798 564.809C235.187 556.075 244.721 529.705 259.012 516.9C272.753 504.581 287.949 505.007 302.566 507.316C327.512 511.25 350.75 515.336 375.792 508.835" stroke="#FFF3FC" stroke-width="0.25" stroke-linecap="round" stroke-linejoin="round"/>
<path d="M4.62256 481.584C25.643 470.085 43.4951 469.812 63.7067 487.28C75.4597 497.427 86.2927 512.252 98.6986 519.179C116.239 529.022 133.891 518.829 151.684 524.176C164.164 527.928 175.034 537.847 186.557 547.508C216.503 572.465 228.182 526.348 253.751 501.635C293.173 463.523 342.67 493.569 384.451 492.414" stroke="#FFF3FC" stroke-width="0.25" stroke-linecap="round" stroke-linejoin="round"/>
<path d="M0.0151367 461.655C20.3381 445.037 36.9437 442.987 56.8436 463.341C70.7855 477.589 83.377 499.797 98.4467 509.139C115.416 519.771 129.803 504.582 146.846 504.49C161.196 504.369 172.393 514.516 185.303 525.665C194.667 533.761 202.146 540.232 212.289 533.26C228.754 522.004 240.767 488.647 256.808 473.898C302.529 431.974 356.501 462.232 403.773 474.445" stroke="#FFF3FC" stroke-width="0.25" stroke-linecap="round" stroke-linejoin="round"/>
<path d="M2.51514 442.972C25.1085 425.534 42.5303 424.744 64.0107 449.048C77.1809 463.949 89.0601 485.382 103.774 493.903C121.618 504.263 137.905 485.123 155.757 483.847C167.198 483.012 177.275 488.313 187.989 495.559C216.763 515.047 231.862 475.812 258.767 458.784C308.947 426.886 364.462 453.969 415.525 460.182" stroke="#FFF3FC" stroke-width="0.25" stroke-linecap="round" stroke-linejoin="round"/>
<path d="M8.45117 429.3C31.6901 412.47 49.7055 410.845 71.3269 437.305C84.0222 452.829 95.3078 475.28 109.762 483.984C127.747 494.844 143.826 474.475 161.367 468.946C171.628 465.71 180.947 466.85 191.046 470.465C217.475 479.882 235.565 453.938 261.327 443.564C314.653 422.085 369.975 443.032 423.821 438.08" stroke="#FFF3FC" stroke-width="0.25" stroke-linecap="round" stroke-linejoin="round"/>
<path d="M15.6782 418.166C39.4885 401.959 58.1494 399.574 79.8004 428.283C91.9764 444.445 102.609 467.883 116.781 476.89C142.186 493.007 168.185 447.863 194.452 448.182C218.284 448.485 239.379 435.468 263.063 429.771C318.096 416.511 374.004 431.625 428.674 410.693" stroke="#FFF3FC" stroke-width="0.25" stroke-linecap="round" stroke-linejoin="round"/>
<path d="M21.9253 407.108C44.7339 392.465 64.2926 387.362 85.1126 415.189C97.3628 431.579 107.624 457.888 121.715 468.065C148.523 487.447 172.4 436.015 197.909 426.248C219.946 417.802 245.173 419.078 267.448 416.587C321.227 410.511 378.575 419.625 429.816 380.313" stroke="#FFF3FC" stroke-width="0.25" stroke-linecap="round" stroke-linejoin="round"/>
<path d="M24.9678 393.65C48.4219 379.159 69.1232 372.825 90.4107 402.157C102.423 418.729 112.351 445.721 126.36 455.746C154.689 476.01 176.77 419.488 201.3 402.111C207.503 397.721 212.905 398.633 219.434 399.817C236.262 402.855 252.564 404.374 269.511 404.374C320.863 404.025 382.24 407.868 427.071 349.387" stroke="#FFF3FC" stroke-width="0.25" stroke-linecap="round" stroke-linejoin="round"/>
<path d="M22.5493 375.331C48.5187 359.534 70.5928 353.048 93.7797 386.374C105.392 403.083 115.156 428.085 129.254 436.182C159.186 453.361 179.961 394.03 204.409 373.281C210.65 367.964 215.806 370.243 222.291 373.281C238.37 380.784 253.358 389.594 270.008 391.797C318.074 398.055 384.912 396.886 420.253 320.116" stroke="#FFF3FC" stroke-width="0.25" stroke-linecap="round" stroke-linejoin="round"/>
<path d="M403.528 316.258C420.089 356.101 423.643 417.726 402.215 454.486C388.265 478.455 352.813 489.27 361.851 540.263C365.123 558.749 372.713 572.89 375.206 592.333C377.351 609.255 375.681 626.89 374.806 643.979C371.638 705.498 386.24 749.29 403.632 797.776" stroke="#FFF3FC" stroke-width="0.25" stroke-linecap="round" stroke-linejoin="round"/>
<path d="M394.765 334.425C408.121 373.128 405.932 423.24 386.64 452.693C370.94 476.662 338.537 489.726 348.569 543.741C351.537 559.568 357.265 572.738 359.699 589.097C362.585 608.662 361.242 627.072 360.396 647.016C357.925 704.981 373.707 742.029 391.055 785.866" stroke="#FFF3FC" stroke-width="0.25" stroke-linecap="round" stroke-linejoin="round"/>
<path d="M383.36 349.539C396.241 385.995 384.666 430.227 368.884 452.01C351.819 475.599 326.643 490.334 336.459 543.802C340.125 563.761 347.537 578.738 349.259 600.733C350.483 616.257 348.858 632.039 348.175 647.487C345.816 700.895 364.039 734.525 380.459 772.682" stroke="#FFF3FC" stroke-width="0.25" stroke-linecap="round" stroke-linejoin="round"/>
<path d="M369.871 361.676C377.291 392.45 368.558 427.189 355.907 445.22C343.902 462.308 329.478 466.167 323.334 498.779C320.366 514.683 322.318 526.455 325.612 541.447C329.7 560.009 336.564 573.346 338.664 594.065C340.63 613.432 337.922 631.888 337.536 651.255C336.534 696.824 357.287 728.829 371.274 759.421" stroke="#FFF3FC" stroke-width="0.25" stroke-linecap="round" stroke-linejoin="round"/>
<path d="M354.839 370.957C363.743 452.723 290.932 458.359 315.855 537.559C321.353 555.012 328.677 568.591 330.762 589.979C332.557 608.373 329.56 625.781 328.899 643.872C327.274 688.591 349.089 718.014 362.912 747.163" stroke="#FFF3FC" stroke-width="0.25" stroke-linecap="round" stroke-linejoin="round"/>
<path d="M338.804 377.503C337.647 409.037 331.815 426.612 320.062 445.296C304.161 470.556 290.805 495.771 306.632 533.108C312.256 546.369 319.498 557.655 322.51 574.85C326.428 597.224 321.62 617.639 321.123 639.892C320.18 682.075 341.639 709.659 354.794 737.32" stroke="#FFF3FC" stroke-width="0.25" stroke-linecap="round" stroke-linejoin="round"/>
<path d="M322.31 381.438C317.257 408.248 314.623 425.488 304.184 445.235C289.225 473.549 280.381 498.399 298.137 528.991C304.525 540.034 312.509 549.513 315.944 566.085C320.663 588.703 315.009 610.333 314.104 632.92C312.375 675.892 332.898 701.852 346.313 730.925" stroke="#FFF3FC" stroke-width="0.25" stroke-linecap="round" stroke-linejoin="round"/>
<path d="M305.935 382.85C299.257 403.265 297.899 426.627 289.522 445.128C274.549 478.181 269.896 500.571 290.182 526.242C298.99 537.376 309.37 545.199 311.818 568.667C313.963 589.265 307.908 611.092 306.914 631.037C304.859 672.414 324.595 700.56 336.987 729.284" stroke="#FFF3FC" stroke-width="0.25" stroke-linecap="round" stroke-linejoin="round"/>
<path d="M290.197 381.863C281.865 401.215 279.772 429.499 273.54 451.661C262.855 489.635 260.837 509.382 282.332 525.741C289.5 531.21 299.739 536.374 304.094 551.123C310.49 572.799 303.056 601.113 300.488 622.88C294.79 671.321 311.789 696.475 326.131 733.553" stroke="#FFF3FC" stroke-width="0.25" stroke-linecap="round" stroke-linejoin="round"/>
<path d="M275.639 378.612C264.918 400.501 263.983 431.412 258.982 459.118C256.281 474.065 248.416 491.913 253.239 508.592C257.349 522.779 267.752 525.437 274.653 528.445C281.738 531.483 293.313 533.518 298.114 547.28C305.452 568.348 296.036 601.432 292.957 622.424C285.137 675.771 298.114 699.619 313.206 745.006" stroke="#FFF3FC" stroke-width="0.25" stroke-linecap="round" stroke-linejoin="round"/>
<path d="M262.825 373.174C250.657 401.807 249.855 427.083 245.975 462.293C243.875 481.28 236.144 506.252 243.623 523.857C248.475 535.265 260.636 534.186 266.891 535.159C275.164 536.435 287.199 534.642 292.326 550.743C298.893 571.417 287.875 607.25 284.231 627.376C281.545 642.201 277.836 658.895 277.91 675.194C278.051 705.801 290.857 739.766 297.632 764.646" stroke="#FFF3FC" stroke-width="0.25" stroke-linecap="round" stroke-linejoin="round"/>
<path d="M252.26 365.686C235.936 403.66 235.684 435.847 232.122 483.331C231.106 496.91 225.748 521.305 230.097 534.551C235.921 552.384 250.175 547.705 258.863 546.991C266.283 546.384 281.509 540.338 286.242 557.229C290.375 571.963 278.823 614.951 276.678 625.583C272.041 648.368 264.881 673.112 264.168 698.373C263.256 731.107 272.827 765.041 278.874 793.75" stroke="#FFF3FC" stroke-width="0.25" stroke-linecap="round" stroke-linejoin="round"/>
<path d="M238.703 353.108C225.785 400.197 224.962 442.273 222.335 494.556C221.667 507.786 216.644 534.399 221.081 546.991C226.839 563.336 240.692 558.596 248.854 557.822C255.969 557.214 270.898 551.427 275.565 567.391C279.765 581.685 269.317 622.713 267.24 633.254C262.669 656.449 255.272 681.36 254.226 706.834C252.823 741.011 262.536 774.52 269.214 804.14" stroke="#FFF3FC" stroke-width="0.25" stroke-linecap="round" stroke-linejoin="round"/>
<path d="M228.523 343.949C218.433 396.354 216.459 445.493 214.033 500.875C213.461 514.075 208.764 541.614 213.202 554.146C218.781 569.867 231.877 566.1 239.913 566.161C247.103 566.161 261.312 561.954 265.882 577.812C270.164 592.622 260.785 629.457 258.425 640.895C253.788 663.361 245.7 687.057 243.979 711.634C241.59 745.766 251.213 777.619 258.21 806.844" stroke="#FFF3FC" stroke-width="0.25" stroke-linecap="round" stroke-linejoin="round"/>
<path d="M220.992 337.964C213.127 392.86 209.558 446.45 206.842 503.169C206.189 516.733 201.76 543.832 206.137 556.85C211.502 572.829 223.582 570.369 231.662 572.161C239.193 573.832 252.326 571.478 256.815 588.05C261.104 603.893 252.905 635.381 249.952 648.171C245.092 669.254 236.025 690.429 233.391 713.381C229.621 746.297 239 775.522 246.108 803.472" stroke="#FFF3FC" stroke-width="0.25" stroke-linecap="round" stroke-linejoin="round"/>
<path d="M215.391 335.018C209.217 390.521 203.771 445.827 200.365 502.333C197.242 554.207 198.273 564.748 223.79 576.05C231.64 579.528 243.779 580.333 248.016 597.634C252.186 614.662 245.352 640.652 241.553 654.718C236.292 674.221 226.149 691.69 222.454 712.621C217.008 743.442 226.053 769.34 233.176 795.588" stroke="#FFF3FC" stroke-width="0.25" stroke-linecap="round" stroke-linejoin="round"/>
<path d="M211.013 334.881C206.257 388.531 199.141 441.21 194.645 494.875C193.116 513.225 188.709 539.29 194.318 556.257C198.874 570.08 208.906 573.285 215.999 578.055C241.545 595.219 247.103 626.115 228.613 672.232C223.627 684.672 215.524 694.515 211.71 708.444C203.808 737.305 212.17 758.905 219.709 784.864" stroke="#FFF3FC" stroke-width="0.25" stroke-linecap="round" stroke-linejoin="round"/>
<path d="M207.043 337.402C203.251 390.567 194.429 438.931 188.53 490.911C182.995 539.898 186.186 556.88 207.859 578.328C229.666 599.928 240.239 633.422 219.375 674.343C213.736 685.401 204.951 692.115 200.217 704.495C190.43 730.044 198.184 747.923 205.974 772.652" stroke="#FFF3FC" stroke-width="0.25" stroke-linecap="round" stroke-linejoin="round"/>
<path d="M202.851 342.37C199.92 394.395 190.452 433.828 182.609 482.253C174.499 532.303 179.849 549.771 199.141 577.083C215.872 600.764 232.908 635.214 211.287 672.156C204.698 683.396 195.705 687.543 189.257 698.601C176.644 720.323 183.848 736.014 192.3 760.728" stroke="#FFF3FC" stroke-width="0.25" stroke-linecap="round" stroke-linejoin="round"/>
<path d="M197.657 349.63C196.307 382.638 194.17 409.342 186.616 438.628C183.07 452.298 178.41 464.769 175.338 479.063C165.44 525.149 173.068 545.382 189.436 574.561C203.2 599.123 222.78 639.741 200.699 671.26C193.487 681.558 184.286 683.746 177.148 693.604C163.355 712.622 169.729 726.186 178.892 750.611" stroke="#FFF3FC" stroke-width="0.25" stroke-linecap="round" stroke-linejoin="round"/>
<path d="M190.749 359.002C190.015 391.509 188.753 416.086 179.708 443.154C175.739 455.017 170.27 464.678 166.82 477.377C155.579 518.769 164.728 541.523 178.425 570.931C190.193 596.192 209.974 639.65 189.043 668.146C181.586 678.293 172.43 680.115 164.639 688.637C149.428 705.346 156.759 721.097 166.056 743.867" stroke="#FFF3FC" stroke-width="0.25" stroke-linecap="round" stroke-linejoin="round"/>
<path d="M181.4 370.243C181.4 401.989 181.199 425.336 170.819 449.883C166.523 460.045 160.468 466.941 156.647 478.106C144.427 513.817 154.54 538.622 165.811 566.45C175.976 591.543 194.911 635.518 176.139 662.54C168.823 673.082 159.393 675.163 151.735 684.156C136.057 702.581 144.078 719.092 154.11 742.029" stroke="#FFF3FC" stroke-width="0.25" stroke-linecap="round" stroke-linejoin="round"/>
<path d="M168.883 383.291C169.751 412.592 170.975 436.455 160.12 458.131C154.993 468.354 148.092 473.002 143.529 484.759C132.481 513.194 142.246 537.817 151.261 561.407C161.47 588.126 177.519 628.91 160.164 656.586C153.346 667.447 144.219 671.275 137.393 682.06C122.694 705.315 133.156 724.591 143.329 746.784" stroke="#FFF3FC" stroke-width="0.25" stroke-linecap="round" stroke-linejoin="round"/>
<path d="M152.455 397.842C154.213 424.409 157.144 450.11 146.334 469.796C140.783 479.898 132.607 481.66 127.828 494.1C118.925 517.432 127.324 536.419 134.365 555.665C142.527 578.024 154.54 607.918 147.795 637.082C143.136 657.209 129.676 665.715 122.909 682.272C110.295 713.153 123.05 736.044 133.942 759.542" stroke="#FFF3FC" stroke-width="0.25" stroke-linecap="round" stroke-linejoin="round"/>
<path d="M139.634 405.301C141.964 430.547 145.57 455.139 135.108 474.217C129.691 484.106 121.648 485.382 116.937 497.61C108.137 520.395 116.625 534.141 124.023 551.124C133.98 573.908 140.747 601.706 134.114 632.161C129.113 655.098 117.79 668.951 111.416 689.883C100.606 725.244 112.062 750.763 123.177 778.242" stroke="#FFF3FC" stroke-width="0.25" stroke-linecap="round" stroke-linejoin="round"/>
<path d="M128.838 405.65C131.658 430.258 135.679 453.574 125.306 472.379C119.853 482.268 111.683 483.27 106.92 495.529C97.697 519.255 107.58 530.951 115.386 547.174C127.191 571.478 129.402 599.898 122.746 631.842C117.627 656.404 107.061 673.629 101.095 697.052C91.5979 734.373 101.377 760.667 112.299 790.895" stroke="#FFF3FC" stroke-width="0.25" stroke-linecap="round" stroke-linejoin="round"/>
<path d="M119.519 400.425C122.895 426.248 126.938 447.513 115.883 466.531C110.689 475.523 103.366 476.951 98.5501 487.554C87.1755 512.632 99.3515 526.774 108.033 543.665C123.614 574.044 119.964 612.308 109.628 648.475C104.434 666.702 97.0142 682.181 92.3175 701.001C82.7459 738.976 90.7741 765.406 101.34 798.216" stroke="#FFF3FC" stroke-width="0.25" stroke-linecap="round" stroke-linejoin="round"/>
<path d="M111.134 391.099C114.955 417.18 118.925 437.154 107.721 456.278C102.26 465.605 94.6544 467.154 89.5941 478.106C76.9804 505.341 92.4878 522.551 101.592 540.582C118.895 574.865 112.774 615.528 101.035 654.505C95.619 672.505 88.3327 688.136 83.5395 706.941C74.3315 743.077 80.8461 768.657 90.2916 801.239" stroke="#FFF3FC" stroke-width="0.25" stroke-linecap="round" stroke-linejoin="round"/>
<path d="M103.136 379.205C107.409 405.741 111.231 424.455 99.8263 443.868C94.0982 453.62 86.1293 455.442 80.7944 466.819C66.8971 496.485 86.1145 518.267 95.6786 537.908C114.711 576.991 107.15 619.599 93.1559 661.629C87.4426 678.793 80.1489 693.907 75.1628 712.09C66.0809 745.203 71.0745 769.218 79.1695 800.737" stroke="#FFF3FC" stroke-width="0.25" stroke-linecap="round" stroke-linejoin="round"/>
<path d="M94.9888 366.218C99.7375 393.225 103.388 410.815 91.8205 430.638C85.8327 440.891 77.5151 443.078 71.9205 454.942C56.7469 487.129 79.8449 514.182 89.8988 535.569C110.674 579.62 102.372 624.384 85.5285 669.088C68.3071 714.779 54.8475 738.277 67.9806 797.563" stroke="#FFF3FC" stroke-width="0.25" stroke-linecap="round" stroke-linejoin="round"/>
<path d="M86.1441 353.655C91.4121 380.997 94.9885 397.706 83.3245 417.954C77.1438 428.723 68.4849 431.336 62.7271 443.777C46.4702 478.485 73.3077 510.612 83.881 533.579C106.289 582.186 97.6225 629.609 77.6929 676.135C60.7979 715.629 46.6557 737.244 56.7393 792.626" stroke="#FFF3FC" stroke-width="0.25" stroke-linecap="round" stroke-linejoin="round"/>
<path d="M76.0605 343.022C81.9073 370.243 85.6172 386.253 73.9755 407.169C67.7057 418.455 58.8613 421.508 52.9774 434.344C35.9711 471.468 66.1401 507.528 77.2254 531.695C101.266 584.085 91.9463 634.257 69.1897 681.725C52.9403 715.614 38.4048 735.269 45.4462 786.535" stroke="#FFF3FC" stroke-width="0.25" stroke-linecap="round" stroke-linejoin="round"/>
<path d="M64.1964 335.808C70.7184 362.527 74.8141 378.02 63.395 399.605C57.192 411.347 48.2437 414.795 42.4266 428.071C25.1384 467.397 58.0082 505.265 69.5609 530.025C95.3077 585.088 84.3041 637.432 59.5515 685.219C44.1628 715.052 29.9167 733.143 34.1238 780.368" stroke="#FFF3FC" stroke-width="0.25" stroke-linecap="round" stroke-linejoin="round"/>
<path d="M50.0023 333.514C57.2367 359.033 62.1783 374.283 51.2118 396.719C45.2759 408.87 36.3721 412.683 30.8369 426.217C13.8974 467.442 48.4887 504.095 60.5162 528.536C88.1848 584.92 73.6122 637.903 48.3551 685.811C33.8642 713.305 20.9908 731.259 22.7938 774.976" stroke="#FFF3FC" stroke-width="0.25" stroke-linecap="round" stroke-linejoin="round"/>
<path d="M32.9368 337.63C40.8537 361.129 47.2348 376.395 37.0474 399.742C31.668 412.076 23.0165 416.283 17.9636 429.924C2.1593 472.592 37.2922 504.141 49.6166 527.139C102.55 625.69 6.52217 675.103 11.4193 771.072" stroke="#FFF3FC" stroke-width="0.25" stroke-linecap="round" stroke-linejoin="round"/>
</g>
<g clip-path="url(#clip0_653_1270)">
<g filter="url(#filter0_f_653_1270)">
<path d="M609 504.607C609 525.757 604.161 546.675 594.791 566.031C585.422 585.387 571.726 602.756 554.576 617.034C537.427 631.312 517.198 642.185 495.177 648.963C473.157 655.741 449.827 658.274 426.672 656.402C403.517 654.529 381.043 648.292 360.682 638.088C340.321 627.883 322.517 613.934 308.403 597.128C294.29 580.323 284.176 561.028 278.705 540.472C273.234 519.917 272.526 498.55 276.625 477.732L441.5 504.607H609Z" fill="url(#paint0_angular_653_1270)"/>
<path d="M536.851 522.68C536.851 587.121 479.433 639.361 408.604 639.361C337.775 639.361 280.357 587.121 280.357 522.68C280.357 458.24 337.775 406 408.604 406C479.433 406 536.851 458.24 536.851 522.68Z" fill="#8636F8"/>
</g>
<path d="M2.5 183.971C32.0472 183.971 56 164.377 56 140.207C56 116.037 32.0472 96.4429 2.5 96.4429C-27.0472 96.4429 -51 116.037 -51 140.207C-51 164.377 -27.0472 183.971 2.5 183.971Z" fill="#862FE7"/>
<path d="M420.165 140.5C429.092 140.5 436.329 134.628 436.329 127.386C436.329 120.144 429.092 114.272 420.165 114.272C411.237 114.272 404 120.144 404 127.386C404 134.628 411.237 140.5 420.165 140.5Z" fill="#FFB800"/>
</g>
<defs>
<filter id="filter0_f_653_1270" x="-76" y="56" width="1035" height="951" filterUnits="userSpaceOnUse" color-interpolation-filters="sRGB">
<feFlood flood-opacity="0" result="BackgroundImageFix"/>
<feBlend mode="normal" in="SourceGraphic" in2="BackgroundImageFix" result="shape"/>
<feGaussianBlur stdDeviation="175" result="effect1_foregroundBlur_653_1270"/>
</filter>
<radialGradient id="paint0_angular_653_1270" cx="0" cy="0" r="1" gradientUnits="userSpaceOnUse" gradientTransform="translate(441.5 531.5) rotate(86.1151) scale(149.311 198.878)">
<stop offset="0.164263" stop-color="#2B6ED1"/>
<stop offset="0.685108" stop-color="#062550"/>
<stop offset="1" stop-color="#88A3C7"/>
</radialGradient>
<clipPath id="clip0_653_1270">
<rect width="429" height="714" fill="white"/>
</clipPath>
</defs>
</svg>
