<svg width="1435" height="809" viewBox="0 0 1435 809" fill="none" xmlns="http://www.w3.org/2000/svg">
<g clip-path="url(#clip0_433_1168)">
<line x1="-0.213135" y1="-482" x2="-0.213099" y2="322" stroke="#FFF3FC"/>
<line x1="30.5492" y1="-482" x2="30.5492" y2="322" stroke="#FFF3FC"/>
<line x1="30.5492" y1="-482" x2="30.5492" y2="322" stroke="#FFF3FC"/>
<line x1="61.3115" y1="-482" x2="61.3116" y2="322" stroke="#FFF3FC"/>
<line x1="92.0739" y1="-482" x2="92.0739" y2="322" stroke="#FFF3FC"/>
<line x1="122.836" y1="-482" x2="122.836" y2="322" stroke="#FFF3FC"/>
<line x1="153.599" y1="-482" x2="153.599" y2="322" stroke="#FFF3FC"/>
<line x1="184.361" y1="-482" x2="184.361" y2="322" stroke="#FFF3FC"/>
<line x1="215.123" y1="-482" x2="215.123" y2="322" stroke="#FFF3FC"/>
<line x1="245.885" y1="-482" x2="245.885" y2="322" stroke="#FFF3FC"/>
<line x1="276.648" y1="-482" x2="276.648" y2="322" stroke="#FFF3FC"/>
<line x1="307.41" y1="-482" x2="307.41" y2="322" stroke="#FFF3FC"/>
<line x1="307.41" y1="-482" x2="307.41" y2="322" stroke="#FFF3FC"/>
<line x1="338.172" y1="-482" x2="338.172" y2="322" stroke="#FFF3FC"/>
<line x1="368.935" y1="-482" x2="368.935" y2="322" stroke="#FFF3FC"/>
<line x1="399.697" y1="-482" x2="399.697" y2="322" stroke="#FFF3FC"/>
<line x1="430.459" y1="-482" x2="430.459" y2="322" stroke="#FFF3FC"/>
<line x1="461.222" y1="-482" x2="461.222" y2="322" stroke="#FFF3FC"/>
<line x1="491.984" y1="-482" x2="491.984" y2="322" stroke="#FFF3FC"/>
<line x1="522.746" y1="-482" x2="522.746" y2="322" stroke="#FFF3FC"/>
<line x1="553.509" y1="-482" x2="553.509" y2="322" stroke="#FFF3FC"/>
<line x1="584.271" y1="-482" x2="584.271" y2="322" stroke="#FFF3FC"/>
<line x1="584.271" y1="-482" x2="584.271" y2="322" stroke="#FFF3FC"/>
<line x1="615.033" y1="-482" x2="615.033" y2="322" stroke="#FFF3FC"/>
<line x1="645.795" y1="-482" x2="645.795" y2="322" stroke="#FFF3FC"/>
<line x1="676.558" y1="-482" x2="676.558" y2="322" stroke="#FFF3FC"/>
<line x1="707.32" y1="-482" x2="707.32" y2="322" stroke="#FFF3FC"/>
<line x1="738.082" y1="-482" x2="738.082" y2="322" stroke="#FFF3FC"/>
<line x1="768.845" y1="-482" x2="768.845" y2="322" stroke="#FFF3FC"/>
<line x1="799.607" y1="-482" x2="799.607" y2="322" stroke="#FFF3FC"/>
<line x1="830.369" y1="-482" x2="830.369" y2="322" stroke="#FFF3FC"/>
<line x1="861.132" y1="-482" x2="861.132" y2="322" stroke="#FFF3FC"/>
<line x1="861.132" y1="-482" x2="861.132" y2="322" stroke="#FFF3FC"/>
<line x1="891.894" y1="-482" x2="891.894" y2="322" stroke="#FFF3FC"/>
<line x1="922.656" y1="-482" x2="922.656" y2="322" stroke="#FFF3FC"/>
<line x1="953.418" y1="-482" x2="953.419" y2="322" stroke="#FFF3FC"/>
<line x1="984.181" y1="-482" x2="984.181" y2="322" stroke="#FFF3FC"/>
<line x1="1013.92" y1="-482" x2="1013.92" y2="322" stroke="#FFF3FC"/>
<line x1="1413.83" y1="-482" x2="1413.83" y2="322" stroke="#FFF3FC"/>
<line x1="1045.71" y1="-482" x2="1045.71" y2="322" stroke="#FFF3FC"/>
<line x1="1076.47" y1="-482" x2="1076.47" y2="322" stroke="#FFF3FC"/>
<line x1="1076.47" y1="-482" x2="1076.47" y2="322" stroke="#FFF3FC"/>
<line x1="1107.23" y1="-482" x2="1107.23" y2="322" stroke="#FFF3FC"/>
<line x1="1137.99" y1="-482" x2="1137.99" y2="322" stroke="#FFF3FC"/>
<line x1="1168.75" y1="-482" x2="1168.75" y2="322" stroke="#FFF3FC"/>
<line x1="1199.52" y1="-482" x2="1199.52" y2="322" stroke="#FFF3FC"/>
<line x1="1229.25" y1="-482" x2="1229.25" y2="322" stroke="#FFF3FC"/>
<line x1="1261.04" y1="-482" x2="1261.04" y2="322" stroke="#FFF3FC"/>
<line x1="1291.8" y1="-482" x2="1291.8" y2="322" stroke="#FFF3FC"/>
<line x1="1291.8" y1="-482" x2="1291.8" y2="322" stroke="#FFF3FC"/>
<line x1="1322.57" y1="-482" x2="1322.57" y2="322" stroke="#FFF3FC"/>
<line x1="1353.33" y1="-482" x2="1353.33" y2="322" stroke="#FFF3FC"/>
<line x1="1384.09" y1="-482" x2="1384.09" y2="322" stroke="#FFF3FC"/>
<line x1="1414.85" y1="-482" x2="1414.85" y2="322" stroke="#FFF3FC"/>
<line x1="-0.213135" y1="-482" x2="-0.213099" y2="322" stroke="#FFF3FC"/>
<line x1="30.5492" y1="-482" x2="30.5492" y2="322" stroke="#FFF3FC"/>
<line x1="30.5492" y1="-482" x2="30.5492" y2="322" stroke="#FFF3FC"/>
<line x1="61.3115" y1="-482" x2="61.3116" y2="322" stroke="#FFF3FC"/>
<line x1="92.0739" y1="-482" x2="92.0739" y2="322" stroke="#FFF3FC"/>
<line x1="122.836" y1="-482" x2="122.836" y2="322" stroke="#FFF3FC"/>
<line x1="153.599" y1="-482" x2="153.599" y2="322" stroke="#FFF3FC"/>
<line x1="184.361" y1="-482" x2="184.361" y2="322" stroke="#FFF3FC"/>
<line x1="215.123" y1="-482" x2="215.123" y2="322" stroke="#FFF3FC"/>
<line x1="245.885" y1="-482" x2="245.885" y2="322" stroke="#FFF3FC"/>
<line x1="276.648" y1="-482" x2="276.648" y2="322" stroke="#FFF3FC"/>
<line x1="307.41" y1="-482" x2="307.41" y2="322" stroke="#FFF3FC"/>
<line x1="307.41" y1="-482" x2="307.41" y2="322" stroke="#FFF3FC"/>
<line x1="338.172" y1="-482" x2="338.172" y2="322" stroke="#FFF3FC"/>
<line x1="368.935" y1="-482" x2="368.935" y2="322" stroke="#FFF3FC"/>
<line x1="399.697" y1="-482" x2="399.697" y2="322" stroke="#FFF3FC"/>
<line x1="430.459" y1="-482" x2="430.459" y2="322" stroke="#FFF3FC"/>
<line x1="461.222" y1="-482" x2="461.222" y2="322" stroke="#FFF3FC"/>
<line x1="491.984" y1="-482" x2="491.984" y2="322" stroke="#FFF3FC"/>
<line x1="522.746" y1="-482" x2="522.746" y2="322" stroke="#FFF3FC"/>
<line x1="553.509" y1="-482" x2="553.509" y2="322" stroke="#FFF3FC"/>
<line x1="584.271" y1="-482" x2="584.271" y2="322" stroke="#FFF3FC"/>
<line x1="584.271" y1="-482" x2="584.271" y2="322" stroke="#FFF3FC"/>
<line x1="615.033" y1="-482" x2="615.033" y2="322" stroke="#FFF3FC"/>
<line x1="645.795" y1="-482" x2="645.795" y2="322" stroke="#FFF3FC"/>
<line x1="676.558" y1="-482" x2="676.558" y2="322" stroke="#FFF3FC"/>
<line x1="707.32" y1="-482" x2="707.32" y2="322" stroke="#FFF3FC"/>
<line x1="738.082" y1="-482" x2="738.082" y2="322" stroke="#FFF3FC"/>
<line x1="768.845" y1="-482" x2="768.845" y2="322" stroke="#FFF3FC"/>
<line x1="799.607" y1="-482" x2="799.607" y2="322" stroke="#FFF3FC"/>
<line x1="830.369" y1="-482" x2="830.369" y2="322" stroke="#FFF3FC"/>
<line x1="861.132" y1="-482" x2="861.132" y2="322" stroke="#FFF3FC"/>
<line x1="861.132" y1="-482" x2="861.132" y2="322" stroke="#FFF3FC"/>
<line x1="891.894" y1="-482" x2="891.894" y2="322" stroke="#FFF3FC"/>
<line x1="922.656" y1="-482" x2="922.656" y2="322" stroke="#FFF3FC"/>
<line x1="953.418" y1="-482" x2="953.419" y2="322" stroke="#FFF3FC"/>
<line x1="984.181" y1="-482" x2="984.181" y2="322" stroke="#FFF3FC"/>
<line x1="1013.92" y1="-482" x2="1013.92" y2="322" stroke="#FFF3FC"/>
<line x1="1413.83" y1="-482" x2="1413.83" y2="322" stroke="#FFF3FC"/>
<line x1="1045.71" y1="-482" x2="1045.71" y2="322" stroke="#FFF3FC"/>
<line x1="1076.47" y1="-482" x2="1076.47" y2="322" stroke="#FFF3FC"/>
<line x1="1076.47" y1="-482" x2="1076.47" y2="322" stroke="#FFF3FC"/>
<line x1="1107.23" y1="-482" x2="1107.23" y2="322" stroke="#FFF3FC"/>
<line x1="1137.99" y1="-482" x2="1137.99" y2="322" stroke="#FFF3FC"/>
<line x1="1168.75" y1="-482" x2="1168.75" y2="322" stroke="#FFF3FC"/>
<line x1="1199.52" y1="-482" x2="1199.52" y2="322" stroke="#FFF3FC"/>
<line x1="1229.25" y1="-482" x2="1229.25" y2="322" stroke="#FFF3FC"/>
<line x1="1261.04" y1="-482" x2="1261.04" y2="322" stroke="#FFF3FC"/>
<line x1="1291.8" y1="-482" x2="1291.8" y2="322" stroke="#FFF3FC"/>
<line x1="1291.8" y1="-482" x2="1291.8" y2="322" stroke="#FFF3FC"/>
<line x1="1322.57" y1="-482" x2="1322.57" y2="322" stroke="#FFF3FC"/>
<line x1="1353.33" y1="-482" x2="1353.33" y2="322" stroke="#FFF3FC"/>
<line x1="1384.09" y1="-482" x2="1384.09" y2="322" stroke="#FFF3FC"/>
<line x1="1414.85" y1="-482" x2="1414.85" y2="322" stroke="#FFF3FC"/>
<line y1="-0.5" x2="824.43" y2="-0.5" transform="matrix(-0.999997 0.00241273 -0.00253691 -0.999997 739.256 307.996)" stroke="#FFF3FC"/>
<line y1="-0.5" x2="824.43" y2="-0.5" transform="matrix(-0.999997 0.00241274 -0.0025369 -0.999997 738.497 8.99658)" stroke="#FFF3FC"/>
<line y1="-0.5" x2="824.43" y2="-0.5" transform="matrix(-0.999997 0.00241273 -0.00253691 -0.999997 738.573 38.9966)" stroke="#FFF3FC"/>
<line y1="-0.5" x2="824.43" y2="-0.5" transform="matrix(-0.999997 0.00241274 -0.0025369 -0.999997 738.649 68.9966)" stroke="#FFF3FC"/>
<line y1="-0.5" x2="824.43" y2="-0.5" transform="matrix(-0.999997 0.00241273 -0.00253691 -0.999997 738.725 98.9966)" stroke="#FFF3FC"/>
<line y1="-0.5" x2="824.43" y2="-0.5" transform="matrix(-0.999997 0.00241273 -0.00253691 -0.999997 738.799 127.996)" stroke="#FFF3FC"/>
<line y1="-0.5" x2="824.43" y2="-0.5" transform="matrix(-0.999997 0.00241273 -0.00253691 -0.999997 739.788 517.995)" stroke="#FFF3FC"/>
<line y1="-0.5" x2="824.43" y2="-0.5" transform="matrix(-0.999997 0.00241273 -0.00253691 -0.999997 738.878 158.996)" stroke="#FFF3FC"/>
<line y1="-0.5" x2="824.43" y2="-0.5" transform="matrix(-0.999997 0.00241273 -0.00253691 -0.999997 738.954 188.996)" stroke="#FFF3FC"/>
<line y1="-0.5" x2="824.43" y2="-0.5" transform="matrix(-0.999997 0.00241273 -0.00253691 -0.999997 738.954 188.996)" stroke="#FFF3FC"/>
<line y1="-0.5" x2="824.43" y2="-0.5" transform="matrix(-0.999997 0.00241273 -0.00253691 -0.999997 739.03 218.996)" stroke="#FFF3FC"/>
<line y1="-0.5" x2="824.43" y2="-0.5" transform="matrix(-0.999997 0.00241273 -0.00253691 -0.999997 739.106 248.996)" stroke="#FFF3FC"/>
<line y1="-0.5" x2="824.43" y2="-0.5" transform="matrix(-0.999997 0.00241273 -0.00253691 -0.999997 739.182 278.996)" stroke="#FFF3FC"/>
<line y1="-0.5" x2="824.43" y2="-0.5" transform="matrix(-0.999997 0.00241273 -0.00253691 -0.999997 739.258 308.996)" stroke="#FFF3FC"/>
<line y1="-0.5" x2="824.43" y2="-0.5" transform="matrix(-0.999997 0.00241273 -0.00253691 -0.999997 739.332 337.996)" stroke="#FFF3FC"/>
<line y1="-0.5" x2="824.43" y2="-0.5" transform="matrix(-0.999997 0.00241273 -0.00253691 -0.999997 740.321 727.994)" stroke="#FFF3FC"/>
<line y1="-0.5" x2="824.43" y2="-0.5" transform="matrix(-0.999997 0.00241273 -0.00253691 -0.999997 1566.6 307.996)" stroke="#FFF3FC"/>
<line y1="-0.5" x2="824.43" y2="-0.5" transform="matrix(-0.999997 0.00241273 -0.00253691 -0.999997 1565.84 8.99658)" stroke="#FFF3FC"/>
<line y1="-0.5" x2="824.43" y2="-0.5" transform="matrix(-0.999997 0.00241273 -0.00253691 -0.999997 1565.92 38.9966)" stroke="#FFF3FC"/>
<line y1="-0.5" x2="824.43" y2="-0.5" transform="matrix(-0.999997 0.00241274 -0.0025369 -0.999997 1565.99 68.9966)" stroke="#FFF3FC"/>
<line y1="-0.5" x2="824.43" y2="-0.5" transform="matrix(-0.999997 0.00241273 -0.00253691 -0.999997 1566.07 98.9966)" stroke="#FFF3FC"/>
<line y1="-0.5" x2="824.43" y2="-0.5" transform="matrix(-0.999997 0.00241273 -0.00253691 -0.999997 1566.14 127.996)" stroke="#FFF3FC"/>
<line y1="-0.5" x2="824.43" y2="-0.5" transform="matrix(-0.999997 0.00241273 -0.00253691 -0.999997 1566.22 158.996)" stroke="#FFF3FC"/>
<line y1="-0.5" x2="824.43" y2="-0.5" transform="matrix(-0.999997 0.00241273 -0.00253691 -0.999997 1566.3 188.996)" stroke="#FFF3FC"/>
<line y1="-0.5" x2="824.43" y2="-0.5" transform="matrix(-0.999997 0.00241273 -0.00253691 -0.999997 1566.3 188.996)" stroke="#FFF3FC"/>
<line y1="-0.5" x2="824.43" y2="-0.5" transform="matrix(-0.999997 0.00241273 -0.00253691 -0.999997 1566.37 218.996)" stroke="#FFF3FC"/>
<line y1="-0.5" x2="824.43" y2="-0.5" transform="matrix(-0.999997 0.00241273 -0.00253691 -0.999997 1566.45 248.996)" stroke="#FFF3FC"/>
<line y1="-0.5" x2="824.43" y2="-0.5" transform="matrix(-0.999997 0.00241273 -0.00253691 -0.999997 1566.53 278.996)" stroke="#FFF3FC"/>
<line y1="-0.5" x2="824.43" y2="-0.5" transform="matrix(-0.999997 0.00241273 -0.00253691 -0.999997 1551.67 727.994)" stroke="#FFF3FC"/>
<line x1="-0.213135" y1="298" x2="-0.213099" y2="1102" stroke="#FFF3FC"/>
<line x1="30.5492" y1="298" x2="30.5492" y2="1102" stroke="#FFF3FC"/>
<line x1="30.5492" y1="298" x2="30.5492" y2="1102" stroke="#FFF3FC"/>
<line x1="61.3115" y1="298" x2="61.3116" y2="1102" stroke="#FFF3FC"/>
<line x1="92.0739" y1="298" x2="92.0739" y2="1102" stroke="#FFF3FC"/>
<line x1="122.836" y1="298" x2="122.836" y2="1102" stroke="#FFF3FC"/>
<line x1="153.599" y1="298" x2="153.599" y2="1102" stroke="#FFF3FC"/>
<line x1="184.361" y1="298" x2="184.361" y2="1102" stroke="#FFF3FC"/>
<line x1="215.123" y1="298" x2="215.123" y2="1102" stroke="#FFF3FC"/>
<line x1="245.885" y1="298" x2="245.885" y2="1102" stroke="#FFF3FC"/>
<line x1="276.648" y1="298" x2="276.648" y2="1102" stroke="#FFF3FC"/>
<line x1="307.41" y1="298" x2="307.41" y2="1102" stroke="#FFF3FC"/>
<line x1="307.41" y1="298" x2="307.41" y2="1102" stroke="#FFF3FC"/>
<line x1="338.172" y1="298" x2="338.172" y2="1102" stroke="#FFF3FC"/>
<line x1="368.935" y1="298" x2="368.935" y2="1102" stroke="#FFF3FC"/>
<line x1="399.697" y1="298" x2="399.697" y2="1102" stroke="#FFF3FC"/>
<line x1="430.459" y1="298" x2="430.459" y2="1102" stroke="#FFF3FC"/>
<line x1="461.222" y1="298" x2="461.222" y2="1102" stroke="#FFF3FC"/>
<line x1="491.984" y1="298" x2="491.984" y2="1102" stroke="#FFF3FC"/>
<line x1="522.746" y1="298" x2="522.746" y2="1102" stroke="#FFF3FC"/>
<line x1="553.509" y1="298" x2="553.509" y2="1102" stroke="#FFF3FC"/>
<line x1="584.271" y1="298" x2="584.271" y2="1102" stroke="#FFF3FC"/>
<line x1="584.271" y1="298" x2="584.271" y2="1102" stroke="#FFF3FC"/>
<line x1="615.033" y1="298" x2="615.033" y2="1102" stroke="#FFF3FC"/>
<line x1="645.795" y1="298" x2="645.795" y2="1102" stroke="#FFF3FC"/>
<line x1="676.558" y1="298" x2="676.558" y2="1102" stroke="#FFF3FC"/>
<line x1="707.32" y1="298" x2="707.32" y2="1102" stroke="#FFF3FC"/>
<line x1="738.082" y1="298" x2="738.082" y2="1102" stroke="#FFF3FC"/>
<line x1="768.845" y1="298" x2="768.845" y2="1102" stroke="#FFF3FC"/>
<line x1="799.607" y1="298" x2="799.607" y2="1102" stroke="#FFF3FC"/>
<line x1="830.369" y1="298" x2="830.369" y2="1102" stroke="#FFF3FC"/>
<line x1="861.132" y1="298" x2="861.132" y2="1102" stroke="#FFF3FC"/>
<line x1="861.132" y1="298" x2="861.132" y2="1102" stroke="#FFF3FC"/>
<line x1="891.894" y1="298" x2="891.894" y2="1102" stroke="#FFF3FC"/>
<line x1="922.656" y1="298" x2="922.656" y2="1102" stroke="#FFF3FC"/>
<line x1="953.418" y1="298" x2="953.419" y2="1102" stroke="#FFF3FC"/>
<line x1="984.181" y1="298" x2="984.181" y2="1102" stroke="#FFF3FC"/>
<line x1="1013.92" y1="298" x2="1013.92" y2="1102" stroke="#FFF3FC"/>
<line x1="1413.83" y1="298" x2="1413.83" y2="1102" stroke="#FFF3FC"/>
<line x1="1045.71" y1="298" x2="1045.71" y2="1102" stroke="#FFF3FC"/>
<line x1="1076.47" y1="298" x2="1076.47" y2="1102" stroke="#FFF3FC"/>
<line x1="1076.47" y1="298" x2="1076.47" y2="1102" stroke="#FFF3FC"/>
<line x1="1107.23" y1="298" x2="1107.23" y2="1102" stroke="#FFF3FC"/>
<line x1="1137.99" y1="298" x2="1137.99" y2="1102" stroke="#FFF3FC"/>
<line x1="1168.75" y1="298" x2="1168.75" y2="1102" stroke="#FFF3FC"/>
<line x1="1199.52" y1="298" x2="1199.52" y2="1102" stroke="#FFF3FC"/>
<line x1="1229.25" y1="298" x2="1229.25" y2="1102" stroke="#FFF3FC"/>
<line x1="1261.04" y1="298" x2="1261.04" y2="1102" stroke="#FFF3FC"/>
<line x1="1291.8" y1="298" x2="1291.8" y2="1102" stroke="#FFF3FC"/>
<line x1="1291.8" y1="298" x2="1291.8" y2="1102" stroke="#FFF3FC"/>
<line x1="1322.57" y1="298" x2="1322.57" y2="1102" stroke="#FFF3FC"/>
<line x1="1353.33" y1="298" x2="1353.33" y2="1102" stroke="#FFF3FC"/>
<line x1="1384.09" y1="298" x2="1384.09" y2="1102" stroke="#FFF3FC"/>
<line x1="1414.85" y1="298" x2="1414.85" y2="1102" stroke="#FFF3FC"/>
<line x1="-0.213135" y1="298" x2="-0.213099" y2="1102" stroke="#FFF3FC"/>
<line x1="30.5492" y1="298" x2="30.5492" y2="1102" stroke="#FFF3FC"/>
<line x1="30.5492" y1="298" x2="30.5492" y2="1102" stroke="#FFF3FC"/>
<line x1="61.3115" y1="298" x2="61.3116" y2="1102" stroke="#FFF3FC"/>
<line x1="92.0739" y1="298" x2="92.0739" y2="1102" stroke="#FFF3FC"/>
<line x1="122.836" y1="298" x2="122.836" y2="1102" stroke="#FFF3FC"/>
<line x1="153.599" y1="298" x2="153.599" y2="1102" stroke="#FFF3FC"/>
<line x1="184.361" y1="298" x2="184.361" y2="1102" stroke="#FFF3FC"/>
<line x1="215.123" y1="298" x2="215.123" y2="1102" stroke="#FFF3FC"/>
<line x1="245.885" y1="298" x2="245.885" y2="1102" stroke="#FFF3FC"/>
<line x1="276.648" y1="298" x2="276.648" y2="1102" stroke="#FFF3FC"/>
<line x1="307.41" y1="298" x2="307.41" y2="1102" stroke="#FFF3FC"/>
<line x1="307.41" y1="298" x2="307.41" y2="1102" stroke="#FFF3FC"/>
<line x1="338.172" y1="298" x2="338.172" y2="1102" stroke="#FFF3FC"/>
<line x1="368.935" y1="298" x2="368.935" y2="1102" stroke="#FFF3FC"/>
<line x1="399.697" y1="298" x2="399.697" y2="1102" stroke="#FFF3FC"/>
<line x1="430.459" y1="298" x2="430.459" y2="1102" stroke="#FFF3FC"/>
<line x1="461.222" y1="298" x2="461.222" y2="1102" stroke="#FFF3FC"/>
<line x1="491.984" y1="298" x2="491.984" y2="1102" stroke="#FFF3FC"/>
<line x1="522.746" y1="298" x2="522.746" y2="1102" stroke="#FFF3FC"/>
<line x1="553.509" y1="298" x2="553.509" y2="1102" stroke="#FFF3FC"/>
<line x1="584.271" y1="298" x2="584.271" y2="1102" stroke="#FFF3FC"/>
<line x1="584.271" y1="298" x2="584.271" y2="1102" stroke="#FFF3FC"/>
<line x1="615.033" y1="298" x2="615.033" y2="1102" stroke="#FFF3FC"/>
<line x1="645.795" y1="298" x2="645.795" y2="1102" stroke="#FFF3FC"/>
<line x1="676.558" y1="298" x2="676.558" y2="1102" stroke="#FFF3FC"/>
<line x1="707.32" y1="298" x2="707.32" y2="1102" stroke="#FFF3FC"/>
<line x1="738.082" y1="298" x2="738.082" y2="1102" stroke="#FFF3FC"/>
<line x1="768.845" y1="298" x2="768.845" y2="1102" stroke="#FFF3FC"/>
<line x1="799.607" y1="298" x2="799.607" y2="1102" stroke="#FFF3FC"/>
<line x1="830.369" y1="298" x2="830.369" y2="1102" stroke="#FFF3FC"/>
<line x1="861.132" y1="298" x2="861.132" y2="1102" stroke="#FFF3FC"/>
<line x1="861.132" y1="298" x2="861.132" y2="1102" stroke="#FFF3FC"/>
<line x1="891.894" y1="298" x2="891.894" y2="1102" stroke="#FFF3FC"/>
<line x1="922.656" y1="298" x2="922.656" y2="1102" stroke="#FFF3FC"/>
<line x1="953.418" y1="298" x2="953.419" y2="1102" stroke="#FFF3FC"/>
<line x1="984.181" y1="298" x2="984.181" y2="1102" stroke="#FFF3FC"/>
<line x1="1013.92" y1="298" x2="1013.92" y2="1102" stroke="#FFF3FC"/>
<line x1="1413.83" y1="298" x2="1413.83" y2="1102" stroke="#FFF3FC"/>
<line x1="1045.71" y1="298" x2="1045.71" y2="1102" stroke="#FFF3FC"/>
<line x1="1076.47" y1="298" x2="1076.47" y2="1102" stroke="#FFF3FC"/>
<line x1="1076.47" y1="298" x2="1076.47" y2="1102" stroke="#FFF3FC"/>
<line x1="1107.23" y1="298" x2="1107.23" y2="1102" stroke="#FFF3FC"/>
<line x1="1137.99" y1="298" x2="1137.99" y2="1102" stroke="#FFF3FC"/>
<line x1="1168.75" y1="298" x2="1168.75" y2="1102" stroke="#FFF3FC"/>
<line x1="1199.52" y1="298" x2="1199.52" y2="1102" stroke="#FFF3FC"/>
<line x1="1229.25" y1="298" x2="1229.25" y2="1102" stroke="#FFF3FC"/>
<line x1="1261.04" y1="298" x2="1261.04" y2="1102" stroke="#FFF3FC"/>
<line x1="1291.8" y1="298" x2="1291.8" y2="1102" stroke="#FFF3FC"/>
<line x1="1291.8" y1="298" x2="1291.8" y2="1102" stroke="#FFF3FC"/>
<line x1="1322.57" y1="298" x2="1322.57" y2="1102" stroke="#FFF3FC"/>
<line x1="1353.33" y1="298" x2="1353.33" y2="1102" stroke="#FFF3FC"/>
<line x1="1384.09" y1="298" x2="1384.09" y2="1102" stroke="#FFF3FC"/>
<line x1="1414.85" y1="298" x2="1414.85" y2="1102" stroke="#FFF3FC"/>
<line y1="-0.5" x2="824.43" y2="-0.5" transform="matrix(-0.999997 0.00241273 -0.00253691 -0.999997 737.355 338.998)" stroke="#FFF3FC"/>
<line y1="-0.5" x2="824.43" y2="-0.5" transform="matrix(-0.999997 0.00241273 -0.00253691 -0.999997 737.432 368.998)" stroke="#FFF3FC"/>
<line y1="-0.5" x2="824.43" y2="-0.5" transform="matrix(-0.999997 0.00241273 -0.00253691 -0.999997 737.508 398.998)" stroke="#FFF3FC"/>
<line y1="-0.5" x2="824.43" y2="-0.5" transform="matrix(-0.999997 0.00241274 -0.0025369 -0.999997 737.584 428.998)" stroke="#FFF3FC"/>
<line y1="-0.5" x2="824.43" y2="-0.5" transform="matrix(-0.999997 0.00241273 -0.00253691 -0.999997 737.66 458.998)" stroke="#FFF3FC"/>
<line y1="-0.5" x2="824.43" y2="-0.5" transform="matrix(-0.999997 0.00241273 -0.00253691 -0.999997 737.736 488.998)" stroke="#FFF3FC"/>
<line y1="-0.5" x2="824.43" y2="-0.5" transform="matrix(-0.999997 0.00241273 -0.00253691 -0.999997 737.812 518.998)" stroke="#FFF3FC"/>
<line y1="-0.5" x2="824.43" y2="-0.5" transform="matrix(-0.999997 0.00241273 -0.00253691 -0.999997 737.888 548.998)" stroke="#FFF3FC"/>
<line y1="-0.5" x2="824.43" y2="-0.5" transform="matrix(-0.999997 0.00241273 -0.00253691 -0.999997 737.888 548.998)" stroke="#FFF3FC"/>
<line y1="-0.5" x2="824.43" y2="-0.5" transform="matrix(-0.999997 0.00241273 -0.00253691 -0.999997 737.964 578.998)" stroke="#FFF3FC"/>
<line y1="-0.5" x2="824.43" y2="-0.5" transform="matrix(-0.999997 0.00241274 -0.0025369 -0.999997 738.04 608.997)" stroke="#FFF3FC"/>
<line y1="-0.5" x2="824.43" y2="-0.5" transform="matrix(-0.999997 0.00241273 -0.00253691 -0.999997 738.116 638.997)" stroke="#FFF3FC"/>
<line y1="-0.5" x2="824.43" y2="-0.5" transform="matrix(-0.999997 0.00241273 -0.00253691 -0.999997 738.193 668.997)" stroke="#FFF3FC"/>
<line y1="-0.5" x2="824.43" y2="-0.5" transform="matrix(-0.999997 0.00241273 -0.00253691 -0.999997 738.266 697.997)" stroke="#FFF3FC"/>
<line y1="-0.5" x2="824.43" y2="-0.5" transform="matrix(-0.999997 0.00241273 -0.00253691 -0.999997 738.345 728.997)" stroke="#FFF3FC"/>
<line y1="-0.5" x2="824.43" y2="-0.5" transform="matrix(-0.999997 0.00241273 -0.00253691 -0.999997 738.421 758.997)" stroke="#FFF3FC"/>
<line y1="-0.5" x2="824.43" y2="-0.5" transform="matrix(-0.999997 0.00241273 -0.00253691 -0.999997 738.421 758.997)" stroke="#FFF3FC"/>
<line y1="-0.5" x2="824.43" y2="-0.5" transform="matrix(-0.999997 0.00241274 -0.0025369 -0.999997 738.497 788.997)" stroke="#FFF3FC"/>
<line y1="-0.5" x2="824.43" y2="-0.5" transform="matrix(-0.999997 0.00241273 -0.00253691 -0.999997 1562.7 336.998)" stroke="#FFF3FC"/>
<line y1="-0.5" x2="824.43" y2="-0.5" transform="matrix(-0.999997 0.00241273 -0.00253691 -0.999997 1562.78 366.998)" stroke="#FFF3FC"/>
<line y1="-0.5" x2="824.43" y2="-0.5" transform="matrix(-0.999997 0.00241273 -0.00253691 -0.999997 1562.85 396.998)" stroke="#FFF3FC"/>
<line y1="-0.5" x2="824.43" y2="-0.5" transform="matrix(-0.999997 0.00241274 -0.0025369 -0.999997 1562.93 426.998)" stroke="#FFF3FC"/>
<line y1="-0.5" x2="824.43" y2="-0.5" transform="matrix(-0.999997 0.00241273 -0.00253691 -0.999997 1563 456.998)" stroke="#FFF3FC"/>
<line y1="-0.5" x2="824.43" y2="-0.5" transform="matrix(-0.999997 0.00241273 -0.00253691 -0.999997 1563.08 486.998)" stroke="#FFF3FC"/>
<line y1="-0.5" x2="824.43" y2="-0.5" transform="matrix(-0.999997 0.00241273 -0.00253691 -0.999997 1563.16 516.998)" stroke="#FFF3FC"/>
<line y1="-0.5" x2="824.43" y2="-0.5" transform="matrix(-0.999997 0.00241273 -0.00253691 -0.999997 1563.23 546.998)" stroke="#FFF3FC"/>
<line y1="-0.5" x2="824.43" y2="-0.5" transform="matrix(-0.999997 0.00241273 -0.00253691 -0.999997 1563.23 546.998)" stroke="#FFF3FC"/>
<line y1="-0.5" x2="824.43" y2="-0.5" transform="matrix(-0.999997 0.00241273 -0.00253691 -0.999997 1563.31 576.998)" stroke="#FFF3FC"/>
<line y1="-0.5" x2="824.43" y2="-0.5" transform="matrix(-0.999997 0.00241274 -0.0025369 -0.999997 1563.39 606.997)" stroke="#FFF3FC"/>
<line y1="-0.5" x2="824.43" y2="-0.5" transform="matrix(-0.999997 0.00241273 -0.00253691 -0.999997 1563.46 636.997)" stroke="#FFF3FC"/>
<line y1="-0.5" x2="824.43" y2="-0.5" transform="matrix(-0.999997 0.00241273 -0.00253691 -0.999997 1525.54 666.997)" stroke="#FFF3FC"/>
<line y1="-0.5" x2="824.43" y2="-0.5" transform="matrix(-0.999997 0.00241273 -0.00253691 -0.999997 1528.61 695.997)" stroke="#FFF3FC"/>
<line y1="-0.5" x2="824.43" y2="-0.5" transform="matrix(-0.999997 0.00241273 -0.00253691 -0.999997 1563.69 726.997)" stroke="#FFF3FC"/>
<line y1="-0.5" x2="824.43" y2="-0.5" transform="matrix(-0.999997 0.00241273 -0.00253691 -0.999997 1563.77 756.997)" stroke="#FFF3FC"/>
<line y1="-0.5" x2="824.43" y2="-0.5" transform="matrix(-0.999997 0.00241273 -0.00253691 -0.999997 1563.77 756.997)" stroke="#FFF3FC"/>
<line y1="-0.5" x2="824.43" y2="-0.5" transform="matrix(-0.999997 0.00241273 -0.00253691 -0.999997 1563.84 786.997)" stroke="#FFF3FC"/>
<g filter="url(#filter0_f_433_1168)">
<path d="M1429 390.607C1429 411.757 1424.16 432.675 1414.79 452.031C1405.42 471.387 1391.73 488.756 1374.58 503.034C1357.43 517.312 1337.2 528.185 1315.18 534.963C1293.16 541.741 1269.83 544.274 1246.67 542.402C1223.52 540.529 1201.04 534.292 1180.68 524.088C1160.32 513.883 1142.52 499.934 1128.4 483.128C1114.29 466.323 1104.18 447.028 1098.7 426.472C1093.23 405.917 1092.53 384.55 1096.63 363.732L1261.5 390.607H1429Z" fill="url(#paint0_angular_433_1168)"/>
<path d="M1356.85 408.68C1356.85 473.121 1299.43 525.361 1228.6 525.361C1157.77 525.361 1100.36 473.121 1100.36 408.68C1100.36 344.24 1157.77 292 1228.6 292C1299.43 292 1356.85 344.24 1356.85 408.68Z" fill="#8636F8"/>
</g>
</g>
<defs>
<filter id="filter0_f_433_1168" x="744" y="-58" width="1035" height="951" filterUnits="userSpaceOnUse" color-interpolation-filters="sRGB">
<feFlood flood-opacity="0" result="BackgroundImageFix"/>
<feBlend mode="normal" in="SourceGraphic" in2="BackgroundImageFix" result="shape"/>
<feGaussianBlur stdDeviation="175" result="effect1_foregroundBlur_433_1168"/>
</filter>
<radialGradient id="paint0_angular_433_1168" cx="0" cy="0" r="1" gradientUnits="userSpaceOnUse" gradientTransform="translate(1261.5 417.5) rotate(86.1151) scale(149.311 198.878)">
<stop offset="0.164263" stop-color="#2B6ED1"/>
<stop offset="0.685108" stop-color="#062550"/>
<stop offset="1" stop-color="#88A3C7"/>
</radialGradient>
<clipPath id="clip0_433_1168">
<rect width="1440" height="809" fill="white"/>
</clipPath>
</defs>
</svg>
