<svg width="429" height="881" viewBox="0 0 429 881" fill="none" xmlns="http://www.w3.org/2000/svg">
<g clip-path="url(#clip0_450_5)">
<line x1="6.78687" y1="298" x2="6.7869" y2="1102" stroke="#FFF3FC"/>
<line x1="37.5493" y1="298" x2="37.5494" y2="1102" stroke="#FFF3FC"/>
<line x1="37.5493" y1="298" x2="37.5494" y2="1102" stroke="#FFF3FC"/>
<line x1="68.3115" y1="298" x2="68.3116" y2="1102" stroke="#FFF3FC"/>
<line x1="99.0737" y1="298" x2="99.0738" y2="1102" stroke="#FFF3FC"/>
<line x1="129.836" y1="298" x2="129.836" y2="1102" stroke="#FFF3FC"/>
<line x1="160.598" y1="298" x2="160.598" y2="1102" stroke="#FFF3FC"/>
<line x1="191.361" y1="298" x2="191.361" y2="1102" stroke="#FFF3FC"/>
<line x1="222.123" y1="298" x2="222.123" y2="1102" stroke="#FFF3FC"/>
<line x1="252.885" y1="298" x2="252.885" y2="1102" stroke="#FFF3FC"/>
<line x1="283.648" y1="298" x2="283.648" y2="1102" stroke="#FFF3FC"/>
<line x1="314.41" y1="298" x2="314.41" y2="1102" stroke="#FFF3FC"/>
<line x1="314.41" y1="298" x2="314.41" y2="1102" stroke="#FFF3FC"/>
<line x1="345.172" y1="298" x2="345.172" y2="1102" stroke="#FFF3FC"/>
<line x1="375.935" y1="298" x2="375.935" y2="1102" stroke="#FFF3FC"/>
<line x1="406.697" y1="298" x2="406.697" y2="1102" stroke="#FFF3FC"/>
<line x1="6.78687" y1="298" x2="6.7869" y2="1102" stroke="#FFF3FC"/>
<line x1="37.5493" y1="298" x2="37.5494" y2="1102" stroke="#FFF3FC"/>
<line x1="37.5493" y1="298" x2="37.5494" y2="1102" stroke="#FFF3FC"/>
<line x1="68.3115" y1="298" x2="68.3116" y2="1102" stroke="#FFF3FC"/>
<line x1="99.0737" y1="298" x2="99.0738" y2="1102" stroke="#FFF3FC"/>
<line x1="129.836" y1="298" x2="129.836" y2="1102" stroke="#FFF3FC"/>
<line x1="160.598" y1="298" x2="160.598" y2="1102" stroke="#FFF3FC"/>
<line x1="191.361" y1="298" x2="191.361" y2="1102" stroke="#FFF3FC"/>
<line x1="222.123" y1="298" x2="222.123" y2="1102" stroke="#FFF3FC"/>
<line x1="252.885" y1="298" x2="252.885" y2="1102" stroke="#FFF3FC"/>
<line x1="283.648" y1="298" x2="283.648" y2="1102" stroke="#FFF3FC"/>
<line x1="314.41" y1="298" x2="314.41" y2="1102" stroke="#FFF3FC"/>
<line x1="314.41" y1="298" x2="314.41" y2="1102" stroke="#FFF3FC"/>
<line x1="345.172" y1="298" x2="345.172" y2="1102" stroke="#FFF3FC"/>
<line x1="375.935" y1="298" x2="375.935" y2="1102" stroke="#FFF3FC"/>
<line x1="406.697" y1="298" x2="406.697" y2="1102" stroke="#FFF3FC"/>
<line y1="-0.5" x2="824.43" y2="-0.5" transform="matrix(-0.999997 0.00241273 -0.00253691 -0.999997 744.355 338.998)" stroke="#FFF3FC"/>
<line y1="-0.5" x2="824.43" y2="-0.5" transform="matrix(-0.999997 0.00241273 -0.00253691 -0.999997 744.432 368.998)" stroke="#FFF3FC"/>
<line y1="-0.5" x2="824.43" y2="-0.5" transform="matrix(-0.999997 0.00241273 -0.00253691 -0.999997 744.508 398.998)" stroke="#FFF3FC"/>
<line y1="-0.5" x2="824.43" y2="-0.5" transform="matrix(-0.999997 0.00241274 -0.0025369 -0.999997 744.584 428.998)" stroke="#FFF3FC"/>
<line y1="-0.5" x2="824.43" y2="-0.5" transform="matrix(-0.999997 0.00241273 -0.00253691 -0.999997 744.66 458.998)" stroke="#FFF3FC"/>
<line y1="-0.5" x2="824.43" y2="-0.5" transform="matrix(-0.999997 0.00241273 -0.00253691 -0.999997 744.736 488.998)" stroke="#FFF3FC"/>
<line y1="-0.5" x2="824.43" y2="-0.5" transform="matrix(-0.999997 0.00241273 -0.00253691 -0.999997 744.812 518.998)" stroke="#FFF3FC"/>
<line y1="-0.5" x2="824.43" y2="-0.5" transform="matrix(-0.999997 0.00241273 -0.00253691 -0.999997 744.888 548.998)" stroke="#FFF3FC"/>
<line y1="-0.5" x2="824.43" y2="-0.5" transform="matrix(-0.999997 0.00241273 -0.00253691 -0.999997 744.888 548.998)" stroke="#FFF3FC"/>
<line y1="-0.5" x2="824.43" y2="-0.5" transform="matrix(-0.999997 0.00241273 -0.00253691 -0.999997 744.964 578.998)" stroke="#FFF3FC"/>
<line y1="-0.5" x2="824.43" y2="-0.5" transform="matrix(-0.999997 0.00241274 -0.0025369 -0.999997 745.041 608.997)" stroke="#FFF3FC"/>
<line y1="-0.5" x2="824.43" y2="-0.5" transform="matrix(-0.999997 0.00241273 -0.00253691 -0.999997 745.116 638.997)" stroke="#FFF3FC"/>
<line y1="-0.5" x2="824.43" y2="-0.5" transform="matrix(-0.999997 0.00241273 -0.00253691 -0.999997 745.193 668.997)" stroke="#FFF3FC"/>
<line y1="-0.5" x2="824.43" y2="-0.5" transform="matrix(-0.999997 0.00241273 -0.00253691 -0.999997 745.266 697.997)" stroke="#FFF3FC"/>
<line y1="-0.5" x2="824.43" y2="-0.5" transform="matrix(-0.999997 0.00241273 -0.00253691 -0.999997 745.345 728.997)" stroke="#FFF3FC"/>
<line y1="-0.5" x2="824.43" y2="-0.5" transform="matrix(-0.999997 0.00241273 -0.00253691 -0.999997 745.421 758.997)" stroke="#FFF3FC"/>
<line y1="-0.5" x2="824.43" y2="-0.5" transform="matrix(-0.999997 0.00241273 -0.00253691 -0.999997 745.421 758.997)" stroke="#FFF3FC"/>
<line y1="-0.5" x2="824.43" y2="-0.5" transform="matrix(-0.999997 0.00241274 -0.0025369 -0.999997 745.497 788.997)" stroke="#FFF3FC"/>
<line y1="-0.5" x2="824.43" y2="-0.5" transform="matrix(-0.999997 0.00241273 -0.00253691 -0.999997 745.573 818.997)" stroke="#FFF3FC"/>
<line y1="-0.5" x2="824.43" y2="-0.5" transform="matrix(-0.999997 0.00241274 -0.0025369 -0.999997 745.649 848.997)" stroke="#FFF3FC"/>
<line y1="-0.5" x2="824.43" y2="-0.5" transform="matrix(-0.999997 0.00241273 -0.00253691 -0.999997 745.725 878.997)" stroke="#FFF3FC"/>
<line x1="6.78687" y1="-482" x2="6.7869" y2="322" stroke="#FFF3FC"/>
<line x1="37.5493" y1="-482" x2="37.5494" y2="322" stroke="#FFF3FC"/>
<line x1="37.5493" y1="-482" x2="37.5494" y2="322" stroke="#FFF3FC"/>
<line x1="68.3115" y1="-482" x2="68.3116" y2="322" stroke="#FFF3FC"/>
<line x1="99.0737" y1="-482" x2="99.0738" y2="322" stroke="#FFF3FC"/>
<line x1="129.836" y1="-482" x2="129.836" y2="322" stroke="#FFF3FC"/>
<line x1="160.598" y1="-482" x2="160.598" y2="322" stroke="#FFF3FC"/>
<line x1="191.361" y1="-482" x2="191.361" y2="322" stroke="#FFF3FC"/>
<line x1="222.123" y1="-482" x2="222.123" y2="322" stroke="#FFF3FC"/>
<line x1="252.885" y1="-482" x2="252.885" y2="322" stroke="#FFF3FC"/>
<line x1="283.648" y1="-482" x2="283.648" y2="322" stroke="#FFF3FC"/>
<line x1="314.41" y1="-482" x2="314.41" y2="322" stroke="#FFF3FC"/>
<line x1="314.41" y1="-482" x2="314.41" y2="322" stroke="#FFF3FC"/>
<line x1="345.172" y1="-482" x2="345.172" y2="322" stroke="#FFF3FC"/>
<line x1="375.935" y1="-482" x2="375.935" y2="322" stroke="#FFF3FC"/>
<line x1="406.697" y1="-482" x2="406.697" y2="322" stroke="#FFF3FC"/>
<line x1="6.78687" y1="-482" x2="6.7869" y2="322" stroke="#FFF3FC"/>
<line x1="37.5493" y1="-482" x2="37.5494" y2="322" stroke="#FFF3FC"/>
<line x1="37.5493" y1="-482" x2="37.5494" y2="322" stroke="#FFF3FC"/>
<line x1="68.3115" y1="-482" x2="68.3116" y2="322" stroke="#FFF3FC"/>
<line x1="99.0737" y1="-482" x2="99.0738" y2="322" stroke="#FFF3FC"/>
<line x1="129.836" y1="-482" x2="129.836" y2="322" stroke="#FFF3FC"/>
<line x1="160.598" y1="-482" x2="160.598" y2="322" stroke="#FFF3FC"/>
<line x1="191.361" y1="-482" x2="191.361" y2="322" stroke="#FFF3FC"/>
<line x1="222.123" y1="-482" x2="222.123" y2="322" stroke="#FFF3FC"/>
<line x1="252.885" y1="-482" x2="252.885" y2="322" stroke="#FFF3FC"/>
<line x1="283.648" y1="-482" x2="283.648" y2="322" stroke="#FFF3FC"/>
<line x1="314.41" y1="-482" x2="314.41" y2="322" stroke="#FFF3FC"/>
<line x1="314.41" y1="-482" x2="314.41" y2="322" stroke="#FFF3FC"/>
<line x1="345.172" y1="-482" x2="345.172" y2="322" stroke="#FFF3FC"/>
<line x1="375.935" y1="-482" x2="375.935" y2="322" stroke="#FFF3FC"/>
<line x1="406.697" y1="-482" x2="406.697" y2="322" stroke="#FFF3FC"/>
<line y1="-0.5" x2="824.43" y2="-0.5" transform="matrix(-0.999997 0.00241273 -0.00253691 -0.999997 746.256 307.996)" stroke="#FFF3FC"/>
<line y1="-0.5" x2="824.43" y2="-0.5" transform="matrix(-0.999997 0.00241274 -0.0025369 -0.999997 745.497 8.99658)" stroke="#FFF3FC"/>
<line y1="-0.5" x2="824.43" y2="-0.5" transform="matrix(-0.999997 0.00241273 -0.00253691 -0.999997 745.573 38.9966)" stroke="#FFF3FC"/>
<line y1="-0.5" x2="824.43" y2="-0.5" transform="matrix(-0.999997 0.00241274 -0.0025369 -0.999997 745.649 68.9966)" stroke="#FFF3FC"/>
<line y1="-0.5" x2="824.43" y2="-0.5" transform="matrix(-0.999997 0.00241273 -0.00253691 -0.999997 745.725 98.9966)" stroke="#FFF3FC"/>
<line y1="-0.5" x2="824.43" y2="-0.5" transform="matrix(-0.999997 0.00241273 -0.00253691 -0.999997 745.799 127.996)" stroke="#FFF3FC"/>
<line y1="-0.5" x2="824.43" y2="-0.5" transform="matrix(-0.999997 0.00241273 -0.00253691 -0.999997 746.788 517.995)" stroke="#FFF3FC"/>
<line y1="-0.5" x2="824.43" y2="-0.5" transform="matrix(-0.999997 0.00241273 -0.00253691 -0.999997 745.877 158.996)" stroke="#FFF3FC"/>
<line y1="-0.5" x2="824.43" y2="-0.5" transform="matrix(-0.999997 0.00241273 -0.00253691 -0.999997 745.954 188.996)" stroke="#FFF3FC"/>
<line y1="-0.5" x2="824.43" y2="-0.5" transform="matrix(-0.999997 0.00241273 -0.00253691 -0.999997 745.954 188.996)" stroke="#FFF3FC"/>
<line y1="-0.5" x2="824.43" y2="-0.5" transform="matrix(-0.999997 0.00241273 -0.00253691 -0.999997 746.03 218.996)" stroke="#FFF3FC"/>
<line y1="-0.5" x2="824.43" y2="-0.5" transform="matrix(-0.999997 0.00241273 -0.00253691 -0.999997 746.106 248.996)" stroke="#FFF3FC"/>
<line y1="-0.5" x2="824.43" y2="-0.5" transform="matrix(-0.999997 0.00241273 -0.00253691 -0.999997 746.182 278.996)" stroke="#FFF3FC"/>
<line y1="-0.5" x2="824.43" y2="-0.5" transform="matrix(-0.999997 0.00241273 -0.00253691 -0.999997 746.258 308.996)" stroke="#FFF3FC"/>
<line y1="-0.5" x2="824.43" y2="-0.5" transform="matrix(-0.999997 0.00241273 -0.00253691 -0.999997 746.332 337.996)" stroke="#FFF3FC"/>
<line y1="-0.5" x2="824.43" y2="-0.5" transform="matrix(-0.999997 0.00241273 -0.00253691 -0.999997 747.321 727.994)" stroke="#FFF3FC"/>
<g filter="url(#filter0_f_450_5)">
<path d="M609 504.607C609 525.757 604.161 546.675 594.791 566.031C585.422 585.387 571.726 602.756 554.576 617.034C537.427 631.312 517.198 642.185 495.177 648.963C473.157 655.741 449.827 658.274 426.672 656.402C403.517 654.529 381.043 648.292 360.682 638.088C340.321 627.883 322.517 613.934 308.403 597.128C294.29 580.323 284.176 561.028 278.705 540.472C273.234 519.917 272.526 498.55 276.625 477.732L441.5 504.607H609Z" fill="url(#paint0_angular_450_5)"/>
<path d="M536.851 522.68C536.851 587.121 479.433 639.361 408.604 639.361C337.775 639.361 280.357 587.121 280.357 522.68C280.357 458.24 337.775 406 408.604 406C479.433 406 536.851 458.24 536.851 522.68Z" fill="#8636F8"/>
</g>
</g>
<defs>
<filter id="filter0_f_450_5" x="-76" y="56" width="1035" height="951" filterUnits="userSpaceOnUse" color-interpolation-filters="sRGB">
<feFlood flood-opacity="0" result="BackgroundImageFix"/>
<feBlend mode="normal" in="SourceGraphic" in2="BackgroundImageFix" result="shape"/>
<feGaussianBlur stdDeviation="175" result="effect1_foregroundBlur_450_5"/>
</filter>
<radialGradient id="paint0_angular_450_5" cx="0" cy="0" r="1" gradientUnits="userSpaceOnUse" gradientTransform="translate(441.5 531.5) rotate(86.1151) scale(149.311 198.878)">
<stop offset="0.164263" stop-color="#2B6ED1"/>
<stop offset="0.685108" stop-color="#062550"/>
<stop offset="1" stop-color="#88A3C7"/>
</radialGradient>
<clipPath id="clip0_450_5">
<rect width="429" height="881" fill="white"/>
</clipPath>
</defs>
</svg>
