<svg width="169" height="22" viewBox="0 0 169 22" fill="none" xmlns="http://www.w3.org/2000/svg">
<path d="M9.108 17.207C7.866 17.207 6.739 17 5.727 16.586C4.73033 16.172 3.87167 15.5893 3.151 14.838C2.44567 14.0713 1.90133 13.1667 1.518 12.124C1.15 11.066 0.966 9.90067 0.966 8.628C0.966 7.30933 1.15767 6.12867 1.541 5.086C1.93967 4.028 2.49933 3.12333 3.22 2.372C3.956 1.62067 4.83 1.04567 5.842 0.646999C6.854 0.248332 7.96567 0.0489989 9.177 0.0489989C10.557 0.0489989 11.7837 0.286666 12.857 0.761999C13.9457 1.23733 14.8273 1.90433 15.502 2.763C16.1767 3.60633 16.5907 4.603 16.744 5.753H14.72C14.5667 4.89433 14.2293 4.17367 13.708 3.591C13.1867 3.00833 12.535 2.56367 11.753 2.257C10.9863 1.95033 10.1277 1.797 9.177 1.797C7.935 1.797 6.84633 2.073 5.911 2.625C4.97567 3.16167 4.24733 3.936 3.726 4.948C3.22 5.96 2.967 7.179 2.967 8.605C2.967 9.67833 3.11267 10.6443 3.404 11.503C3.69533 12.3463 4.10933 13.067 4.646 13.665C5.18267 14.263 5.82667 14.723 6.578 15.045C7.34467 15.3517 8.19567 15.505 9.131 15.505C10.327 15.505 11.3697 15.275 12.259 14.815C13.1637 14.3397 13.8613 13.665 14.352 12.791C14.858 11.9017 15.111 10.836 15.111 9.594V9.088L15.847 9.893H9.407V8.375H17.135V9.387C17.135 10.583 16.9433 11.664 16.56 12.63C16.1767 13.596 15.6323 14.4163 14.927 15.091C14.2217 15.7657 13.3783 16.287 12.397 16.655C11.4157 17.023 10.3193 17.207 9.108 17.207ZM23.9482 17.207C23.2122 17.207 22.5375 17.069 21.9242 16.793C21.3262 16.5017 20.8049 16.0953 20.3602 15.574C19.9155 15.0373 19.5705 14.3857 19.3252 13.619C19.0952 12.837 18.9802 11.9477 18.9802 10.951C18.9802 9.63233 19.1872 8.50533 19.6012 7.57C20.0305 6.63467 20.6132 5.92933 21.3492 5.454C22.1005 4.96333 22.9669 4.718 23.9482 4.718C24.6535 4.718 25.2899 4.833 25.8572 5.063C26.4399 5.27767 26.9305 5.592 27.3292 6.006C27.7279 6.40467 28.0269 6.88 28.2262 7.432H28.3412L28.4102 4.925H30.2042V17H28.3412V14.47H28.2262C27.9195 15.2827 27.3982 15.942 26.6622 16.448C25.9262 16.954 25.0215 17.207 23.9482 17.207ZM24.5692 15.643C25.3819 15.643 26.0642 15.4513 26.6162 15.068C27.1682 14.6847 27.5899 14.194 27.8812 13.596C28.1725 12.998 28.3182 12.3617 28.3182 11.687V10.215C28.3182 9.54033 28.1725 8.904 27.8812 8.306C27.5899 7.69267 27.1682 7.202 26.6162 6.834C26.0642 6.45067 25.3819 6.259 24.5692 6.259C23.8332 6.259 23.1892 6.443 22.6372 6.811C22.0852 7.16367 21.6559 7.685 21.3492 8.375C21.0425 9.065 20.8892 9.92367 20.8892 10.951C20.8892 11.963 21.0425 12.8217 21.3492 13.527C21.6559 14.217 22.0852 14.746 22.6372 15.114C23.1892 15.4667 23.8332 15.643 24.5692 15.643ZM39.7226 17.207C39.0326 17.207 38.3963 17.0997 37.8136 16.885C37.2463 16.655 36.7633 16.333 36.3646 15.919C35.9813 15.505 35.6823 15.0297 35.4676 14.493H35.3526L35.2836 17H33.4896V0.232999H35.3526V7.432H35.4676C35.7743 6.61933 36.2956 5.96767 37.0316 5.477C37.7676 4.971 38.6646 4.718 39.7226 4.718C40.4739 4.718 41.1486 4.856 41.7466 5.132C42.3599 5.408 42.8889 5.81433 43.3336 6.351C43.7783 6.88767 44.1156 7.547 44.3456 8.329C44.5909 9.09567 44.7136 9.97733 44.7136 10.974C44.7136 12.2927 44.4989 13.4197 44.0696 14.355C43.6556 15.275 43.0729 15.9803 42.3216 16.471C41.5856 16.9617 40.7193 17.207 39.7226 17.207ZM39.1246 15.643C39.8606 15.643 40.5046 15.4667 41.0566 15.114C41.6086 14.7613 42.0379 14.24 42.3446 13.55C42.6513 12.8447 42.8046 11.986 42.8046 10.974C42.8046 10.2073 42.7126 9.53267 42.5286 8.95C42.3599 8.36733 42.1146 7.87667 41.7926 7.478C41.4706 7.07933 41.0796 6.78033 40.6196 6.581C40.1749 6.38167 39.6766 6.282 39.1246 6.282C38.3119 6.282 37.6219 6.47367 37.0546 6.857C36.5026 7.225 36.0809 7.71567 35.7896 8.329C35.5136 8.927 35.3756 9.56333 35.3756 10.238V11.687C35.3756 12.3617 35.5136 13.0057 35.7896 13.619C36.0809 14.217 36.5026 14.7077 37.0546 15.091C37.6219 15.459 38.3119 15.643 39.1246 15.643ZM47.148 17V4.925H48.804L48.919 7.156H49.011C49.2717 6.38933 49.7317 5.799 50.391 5.385C51.0503 4.971 51.7863 4.764 52.599 4.764C52.737 4.764 52.8673 4.77167 52.99 4.787C53.1127 4.787 53.2277 4.79467 53.335 4.81V6.581C53.2277 6.56567 53.1127 6.558 52.99 6.558C52.8673 6.54267 52.737 6.535 52.599 6.535C51.8937 6.535 51.2803 6.66533 50.759 6.926C50.2377 7.18667 49.8237 7.56233 49.517 8.053C49.2257 8.52833 49.0493 9.111 48.988 9.801V17H47.148ZM55.3259 17V4.925H57.1889V17H55.3259ZM55.3259 2.924V0.232999H57.1889V2.924H55.3259ZM65.1171 17.207C63.9671 17.207 62.9781 16.954 62.1501 16.448C61.3374 15.942 60.7164 15.2213 60.2871 14.286C59.8578 13.3507 59.6431 12.262 59.6431 11.02C59.6431 9.74733 59.8578 8.64333 60.2871 7.708C60.7164 6.75733 61.3298 6.029 62.1271 5.523C62.9244 5.00167 63.8981 4.741 65.0481 4.741C66.2748 4.741 67.2868 5.017 68.0841 5.569C68.8814 6.121 69.4564 6.88767 69.8091 7.869C70.1771 8.85033 70.3151 9.985 70.2231 11.273H61.4601C61.4754 12.2697 61.6288 13.1053 61.9201 13.78C62.2268 14.4393 62.6484 14.9377 63.1851 15.275C63.7371 15.597 64.3811 15.758 65.1171 15.758C66.0064 15.758 66.7348 15.5357 67.3021 15.091C67.8694 14.6463 68.2298 14.0637 68.3831 13.343H70.1541C70.0621 14.1557 69.7784 14.8533 69.3031 15.436C68.8431 16.0187 68.2451 16.4633 67.5091 16.77C66.7884 17.0613 65.9911 17.207 65.1171 17.207ZM61.4831 10.215L61.2761 9.939H68.6131L68.4061 10.261C68.4214 9.295 68.2911 8.52067 68.0151 7.938C67.7391 7.34 67.3404 6.903 66.8191 6.627C66.3131 6.33567 65.7228 6.19 65.0481 6.19C64.3428 6.19 63.7294 6.34333 63.2081 6.65C62.6868 6.95667 62.2728 7.409 61.9661 8.007C61.6748 8.58967 61.5138 9.32567 61.4831 10.215ZM72.6701 17V0.232999H74.5331V17H72.6701ZM81.9552 17.207C81.2192 17.207 80.5446 17.069 79.9312 16.793C79.3332 16.5017 78.8119 16.0953 78.3672 15.574C77.9226 15.0373 77.5776 14.3857 77.3322 13.619C77.1022 12.837 76.9872 11.9477 76.9872 10.951C76.9872 9.63233 77.1942 8.50533 77.6082 7.57C78.0376 6.63467 78.6202 5.92933 79.3562 5.454C80.1076 4.96333 80.9739 4.718 81.9552 4.718C82.6606 4.718 83.2969 4.833 83.8642 5.063C84.4469 5.27767 84.9376 5.592 85.3362 6.006C85.7349 6.40467 86.0339 6.88 86.2332 7.432H86.3482L86.4172 4.925H88.2112V17H86.3482V14.47H86.2332C85.9266 15.2827 85.4052 15.942 84.6692 16.448C83.9332 16.954 83.0286 17.207 81.9552 17.207ZM82.5762 15.643C83.3889 15.643 84.0712 15.4513 84.6232 15.068C85.1752 14.6847 85.5969 14.194 85.8882 13.596C86.1796 12.998 86.3252 12.3617 86.3252 11.687V10.215C86.3252 9.54033 86.1796 8.904 85.8882 8.306C85.5969 7.69267 85.1752 7.202 84.6232 6.834C84.0712 6.45067 83.3889 6.259 82.5762 6.259C81.8402 6.259 81.1962 6.443 80.6442 6.811C80.0922 7.16367 79.6629 7.685 79.3562 8.375C79.0496 9.065 78.8962 9.92367 78.8962 10.951C78.8962 11.963 79.0496 12.8217 79.3562 13.527C79.6629 14.217 80.0922 14.746 80.6442 15.114C81.1962 15.4667 81.8402 15.643 82.5762 15.643ZM129.068 17.207C128.178 17.207 127.404 17.0307 126.745 16.678C126.085 16.31 125.579 15.7657 125.227 15.045C124.874 14.309 124.698 13.4043 124.698 12.331V4.925H126.561V11.871C126.561 12.6683 126.668 13.3507 126.883 13.918C127.097 14.47 127.435 14.8917 127.895 15.183C128.37 15.4743 128.976 15.62 129.712 15.62C130.432 15.62 131.069 15.4437 131.621 15.091C132.173 14.7383 132.602 14.24 132.909 13.596C133.215 12.952 133.369 12.2083 133.369 11.365V4.925H135.232V17H133.461L133.369 14.424H133.254C132.932 15.2827 132.395 15.965 131.644 16.471C130.892 16.9617 130.034 17.207 129.068 17.207ZM138.404 17V4.925H140.267V17H138.404ZM138.404 2.924V0.232999H140.267V2.924H138.404ZM143.572 17V0.232999H145.435V17H143.572ZM152.857 17.207C152.121 17.207 151.446 17.069 150.833 16.793C150.235 16.5017 149.714 16.0953 149.269 15.574C148.824 15.0373 148.479 14.3857 148.234 13.619C148.004 12.837 147.889 11.9477 147.889 10.951C147.889 9.63233 148.096 8.50533 148.51 7.57C148.939 6.63467 149.522 5.92933 150.258 5.454C151.009 4.96333 151.876 4.718 152.857 4.718C153.562 4.718 154.199 4.833 154.766 5.063C155.349 5.27767 155.839 5.592 156.238 6.006C156.637 6.40467 156.936 6.88 157.135 7.432H157.25L157.319 4.925H159.113V17H157.25V14.47H157.135C156.828 15.2827 156.307 15.942 155.571 16.448C154.835 16.954 153.93 17.207 152.857 17.207ZM153.478 15.643C154.291 15.643 154.973 15.4513 155.525 15.068C156.077 14.6847 156.499 14.194 156.79 13.596C157.081 12.998 157.227 12.3617 157.227 11.687V10.215C157.227 9.54033 157.081 8.904 156.79 8.306C156.499 7.69267 156.077 7.202 155.525 6.834C154.973 6.45067 154.291 6.259 153.478 6.259C152.742 6.259 152.098 6.443 151.546 6.811C150.994 7.16367 150.565 7.685 150.258 8.375C149.951 9.065 149.798 9.92367 149.798 10.951C149.798 11.963 149.951 12.8217 150.258 13.527C150.565 14.217 150.994 14.746 151.546 15.114C152.098 15.4667 152.742 15.643 153.478 15.643ZM162.398 17V4.925H164.054L164.169 7.156H164.261C164.522 6.38933 164.982 5.799 165.641 5.385C166.301 4.971 167.037 4.764 167.849 4.764C167.987 4.764 168.118 4.77167 168.24 4.787C168.363 4.787 168.478 4.79467 168.585 4.81V6.581C168.478 6.56567 168.363 6.558 168.24 6.558C168.118 6.54267 167.987 6.535 167.849 6.535C167.144 6.535 166.531 6.66533 166.009 6.926C165.488 7.18667 165.074 7.56233 164.767 8.053C164.476 8.52833 164.3 9.111 164.238 9.801V17H162.398Z" fill="#090909"/>
<path d="M94.8965 17L101.037 0.232999H103.774L109.915 17H107.868L106.35 12.86H98.4615L96.9665 17H94.8965ZM98.9675 11.296H105.844L103.774 5.684L102.486 2.073H102.371L101.06 5.684L98.9675 11.296ZM116.092 21.071C115.187 21.071 114.39 20.933 113.7 20.657C113.01 20.3963 112.45 20.013 112.021 19.507C111.607 19.001 111.354 18.403 111.262 17.713H113.079C113.14 18.1117 113.309 18.4567 113.585 18.748C113.861 19.0393 114.213 19.2617 114.643 19.415C115.072 19.5683 115.57 19.645 116.138 19.645C116.904 19.645 117.556 19.5377 118.093 19.323C118.629 19.1083 119.043 18.748 119.335 18.242C119.626 17.736 119.772 17.0613 119.772 16.218V13.711H119.634C119.358 14.493 118.852 15.1217 118.116 15.597C117.395 16.0723 116.529 16.31 115.517 16.31C114.781 16.31 114.106 16.1797 113.493 15.919C112.895 15.6583 112.381 15.2827 111.952 14.792C111.522 14.286 111.193 13.6727 110.963 12.952C110.733 12.2313 110.618 11.4187 110.618 10.514C110.618 9.30267 110.825 8.26767 111.239 7.409C111.653 6.535 112.228 5.868 112.964 5.408C113.715 4.948 114.581 4.718 115.563 4.718C116.559 4.718 117.418 4.95567 118.139 5.431C118.859 5.891 119.358 6.512 119.634 7.294H119.772L119.818 4.925H121.612V16.057C121.612 16.9617 121.481 17.736 121.221 18.38C120.96 19.024 120.584 19.5377 120.094 19.921C119.603 20.3197 119.013 20.611 118.323 20.795C117.648 20.979 116.904 21.071 116.092 21.071ZM116.115 14.838C116.881 14.838 117.533 14.6617 118.07 14.309C118.622 13.941 119.043 13.4887 119.335 12.952C119.626 12.4 119.772 11.8327 119.772 11.25V9.778C119.756 9.19533 119.611 8.63567 119.335 8.099C119.059 7.547 118.652 7.09467 118.116 6.742C117.594 6.38933 116.935 6.213 116.138 6.213C115.402 6.213 114.765 6.38933 114.229 6.742C113.692 7.07933 113.27 7.57 112.964 8.214C112.672 8.858 112.527 9.62467 112.527 10.514C112.527 11.434 112.672 12.216 112.964 12.86C113.27 13.504 113.692 13.9947 114.229 14.332C114.765 14.6693 115.394 14.838 116.115 14.838Z" fill="#8636F8"/>
</svg>
