<svg width="20" height="18" viewBox="0 0 20 18" fill="none" xmlns="http://www.w3.org/2000/svg">
<g clip-path="url(#clip0_447_2924)">
<path d="M0 2.625C0 2.0025 0.558333 1.5 1.25 1.5H14.5833C15.275 1.5 15.8333 2.0025 15.8333 2.625C15.8333 3.2475 15.275 3.75 14.5833 3.75H1.25C0.558333 3.75 0 3.2475 0 2.625ZM14.5833 13.5H1.25C0.558333 13.5 0 14.0025 0 14.625C0 15.2475 0.558333 15.75 1.25 15.75H14.5833C15.275 15.75 15.8333 15.2475 15.8333 14.625C15.8333 14.0025 15.275 13.5 14.5833 13.5ZM18.75 7.5H5.41667C4.725 7.5 4.16667 8.0025 4.16667 8.625C4.16667 9.2475 4.725 9.75 5.41667 9.75H18.75C19.4417 9.75 20 9.2475 20 8.625C20 8.0025 19.4417 7.5 18.75 7.5Z" fill="black"/>
</g>
<defs>
<clipPath id="clip0_447_2924">
<rect width="20" height="18" fill="white"/>
</clipPath>
</defs>
</svg>
